G04 #@! TF.GenerationSoftware,KiCad,Pcbnew,9.0.4*
G04 #@! TF.CreationDate,2026-06-30T21:14:12-04:00*
G04 #@! TF.ProjectId,Pocket-Lab-Bench-Power,506f636b-6574-42d4-9c61-622d42656e63,REV1*
G04 #@! TF.SameCoordinates,Original*
G04 #@! TF.FileFunction,Soldermask,Bot*
G04 #@! TF.FilePolarity,Negative*
%FSLAX46Y46*%
G04 Gerber Fmt 4.6, Leading zero omitted, Abs format (unit mm)*
G04 Created by KiCad (PCBNEW 9.0.4) date 2026-06-30 21:14:12*
%MOMM*%
%LPD*%
G01*
G04 APERTURE LIST*
G04 Aperture macros list*
%AMRoundRect*
0 Rectangle with rounded corners*
0 $1 Rounding radius*
0 $2 $3 $4 $5 $6 $7 $8 $9 X,Y pos of 4 corners*
0 Add a 4 corners polygon primitive as box body*
4,1,4,$2,$3,$4,$5,$6,$7,$8,$9,$2,$3,0*
0 Add four circle primitives for the rounded corners*
1,1,$1+$1,$2,$3*
1,1,$1+$1,$4,$5*
1,1,$1+$1,$6,$7*
1,1,$1+$1,$8,$9*
0 Add four rect primitives between the rounded corners*
20,1,$1+$1,$2,$3,$4,$5,0*
20,1,$1+$1,$4,$5,$6,$7,0*
20,1,$1+$1,$6,$7,$8,$9,0*
20,1,$1+$1,$8,$9,$2,$3,0*%
G04 Aperture macros list end*
%ADD10R,1.700000X1.700000*%
%ADD11C,1.700000*%
%ADD12C,3.200000*%
%ADD13RoundRect,0.102000X0.900000X0.900000X-0.900000X0.900000X-0.900000X-0.900000X0.900000X-0.900000X0*%
%ADD14C,2.004000*%
%ADD15O,3.204000X6.204000*%
%ADD16C,0.700000*%
%ADD17C,1.200000*%
%ADD18C,2.800000*%
%ADD19O,1.200000X4.200000*%
%ADD20O,2.800000X1.200000*%
%ADD21C,1.500000*%
%ADD22RoundRect,0.200000X0.200000X0.275000X-0.200000X0.275000X-0.200000X-0.275000X0.200000X-0.275000X0*%
%ADD23RoundRect,0.225000X-0.250000X0.225000X-0.250000X-0.225000X0.250000X-0.225000X0.250000X0.225000X0*%
%ADD24RoundRect,0.225000X0.250000X-0.225000X0.250000X0.225000X-0.250000X0.225000X-0.250000X-0.225000X0*%
%ADD25RoundRect,0.200000X-0.275000X0.200000X-0.275000X-0.200000X0.275000X-0.200000X0.275000X0.200000X0*%
%ADD26RoundRect,0.225000X0.225000X0.250000X-0.225000X0.250000X-0.225000X-0.250000X0.225000X-0.250000X0*%
%ADD27RoundRect,0.140000X0.170000X-0.140000X0.170000X0.140000X-0.170000X0.140000X-0.170000X-0.140000X0*%
%ADD28RoundRect,0.135000X-0.135000X-0.185000X0.135000X-0.185000X0.135000X0.185000X-0.135000X0.185000X0*%
%ADD29RoundRect,0.250000X1.600000X-0.300000X1.600000X0.300000X-1.600000X0.300000X-1.600000X-0.300000X0*%
%ADD30RoundRect,0.250000X-0.600000X-0.750000X0.600000X-0.750000X0.600000X0.750000X-0.600000X0.750000X0*%
%ADD31O,1.700000X2.000000*%
%ADD32RoundRect,0.140000X-0.140000X-0.170000X0.140000X-0.170000X0.140000X0.170000X-0.140000X0.170000X0*%
%ADD33RoundRect,0.225000X-0.225000X-0.250000X0.225000X-0.250000X0.225000X0.250000X-0.225000X0.250000X0*%
%ADD34RoundRect,0.150000X-0.512500X-0.150000X0.512500X-0.150000X0.512500X0.150000X-0.512500X0.150000X0*%
%ADD35R,0.299999X0.299999*%
%ADD36R,0.600000X0.500000*%
%ADD37RoundRect,0.150000X-0.150000X0.512500X-0.150000X-0.512500X0.150000X-0.512500X0.150000X0.512500X0*%
%ADD38RoundRect,0.250000X-0.475000X0.250000X-0.475000X-0.250000X0.475000X-0.250000X0.475000X0.250000X0*%
%ADD39RoundRect,0.150000X-0.875000X-0.150000X0.875000X-0.150000X0.875000X0.150000X-0.875000X0.150000X0*%
%ADD40RoundRect,0.250000X0.300000X1.600000X-0.300000X1.600000X-0.300000X-1.600000X0.300000X-1.600000X0*%
G04 APERTURE END LIST*
D10*
G04 #@! TO.C,J5*
X-13870000Y82964885D03*
D11*
X-13870000Y80424885D03*
X-13870000Y77884885D03*
X-13870000Y75344885D03*
G04 #@! TD*
D12*
G04 #@! TO.C,H1*
X-84000000Y84000000D03*
G04 #@! TD*
D13*
G04 #@! TO.C,S1*
X-73050001Y66010000D03*
D14*
X-78049999Y66010000D03*
X-73050000Y80510000D03*
X-78050000Y80510000D03*
X-75550000Y80510000D03*
D15*
X-69950000Y73010000D03*
X-81150000Y73010000D03*
G04 #@! TD*
D12*
G04 #@! TO.C,H2*
X8000000Y84000000D03*
G04 #@! TD*
G04 #@! TO.C,H3*
X8000000Y62000000D03*
G04 #@! TD*
D10*
G04 #@! TO.C,J2*
X-62130000Y82964885D03*
D11*
X-62130000Y80424885D03*
X-62130000Y77884885D03*
X-62130000Y75344885D03*
G04 #@! TD*
D12*
G04 #@! TO.C,H4*
X-84000000Y62000000D03*
G04 #@! TD*
D16*
G04 #@! TO.C,USB1*
X-57550000Y66332441D03*
D17*
X-56200000Y68482441D03*
X-56200000Y64182441D03*
X-51400000Y68482441D03*
X-51400000Y64182441D03*
G04 #@! TD*
D18*
G04 #@! TO.C,U11*
X4490001Y73000000D03*
D19*
X710000Y73000000D03*
D20*
X8390000Y68120000D03*
X8390000Y77880000D03*
G04 #@! TD*
D21*
G04 #@! TO.C,SW1*
X-5660000Y71000000D03*
X-5660000Y73000000D03*
X-5660000Y75000000D03*
X-10160000Y71000000D03*
X-10160000Y73000000D03*
X-10160000Y75000000D03*
G04 #@! TD*
D10*
G04 #@! TO.C,J3*
X-14538562Y61926192D03*
D11*
X-17078562Y61926192D03*
X-19618561Y61926192D03*
X-22158562Y61926192D03*
G04 #@! TD*
D22*
G04 #@! TO.C,R16*
X-74725707Y72200000D03*
X-76375707Y72200000D03*
G04 #@! TD*
D23*
G04 #@! TO.C,C32*
X-8158443Y85149002D03*
X-8158443Y83599002D03*
G04 #@! TD*
D24*
G04 #@! TO.C,C33*
X-3382440Y83599001D03*
X-3382440Y85149001D03*
G04 #@! TD*
D25*
G04 #@! TO.C,R57*
X-57699999Y80650002D03*
X-57699999Y79000002D03*
G04 #@! TD*
D22*
G04 #@! TO.C,R18*
X-1505782Y82034683D03*
X-3155782Y82034683D03*
G04 #@! TD*
D26*
G04 #@! TO.C,C78*
X-58100000Y74366667D03*
X-59650000Y74366667D03*
G04 #@! TD*
D27*
G04 #@! TO.C,C53*
X-40940000Y68739999D03*
X-40940000Y69699999D03*
G04 #@! TD*
D23*
G04 #@! TO.C,C31*
X-1767441Y85149004D03*
X-1767441Y83599004D03*
G04 #@! TD*
D22*
G04 #@! TO.C,R23*
X-74725001Y70600000D03*
X-76375001Y70600000D03*
G04 #@! TD*
D10*
G04 #@! TO.C,TH1*
X-44100000Y63975000D03*
D11*
X-44100000Y61435000D03*
G04 #@! TD*
D27*
G04 #@! TO.C,C6*
X-62200000Y67920000D03*
X-62200000Y68880000D03*
G04 #@! TD*
D22*
G04 #@! TO.C,R11*
X-78049999Y64000000D03*
X-79699999Y64000000D03*
G04 #@! TD*
D27*
G04 #@! TO.C,C52*
X-39640000Y68739999D03*
X-39640000Y69699999D03*
G04 #@! TD*
D22*
G04 #@! TO.C,R19*
X1669216Y82034683D03*
X19216Y82034683D03*
G04 #@! TD*
D28*
G04 #@! TO.C,R37*
X-38464999Y81700000D03*
X-37444999Y81700000D03*
G04 #@! TD*
D29*
G04 #@! TO.C,L2*
X-6605782Y77834684D03*
X-6605782Y80834684D03*
G04 #@! TD*
D22*
G04 #@! TO.C,R24*
X-74725000Y67400000D03*
X-76375000Y67400000D03*
G04 #@! TD*
G04 #@! TO.C,R14*
X-74724999Y78600000D03*
X-76374999Y78600000D03*
G04 #@! TD*
D30*
G04 #@! TO.C,J4*
X-39250000Y62175000D03*
D31*
X-36750000Y62175000D03*
G04 #@! TD*
D32*
G04 #@! TO.C,C29*
X-44013166Y74234350D03*
X-43053166Y74234350D03*
G04 #@! TD*
D24*
G04 #@! TO.C,C36*
X1594218Y77739685D03*
X1594218Y79289685D03*
G04 #@! TD*
D22*
G04 #@! TO.C,R17*
X-74724999Y69000000D03*
X-76374999Y69000000D03*
G04 #@! TD*
D24*
G04 #@! TO.C,C74*
X-59500000Y79025000D03*
X-59500000Y80575000D03*
G04 #@! TD*
D22*
G04 #@! TO.C,R21*
X-74724998Y77000000D03*
X-76374998Y77000000D03*
G04 #@! TD*
D21*
G04 #@! TO.C,TP9*
X-5900000Y65100000D03*
G04 #@! TD*
D33*
G04 #@! TO.C,C80*
X-59650000Y72800000D03*
X-58100000Y72800000D03*
G04 #@! TD*
D26*
G04 #@! TO.C,C38*
X-53392500Y83750003D03*
X-54942500Y83750003D03*
G04 #@! TD*
D24*
G04 #@! TO.C,C30*
X-3505782Y77834686D03*
X-3505782Y79384686D03*
G04 #@! TD*
D34*
G04 #@! TO.C,U15*
X-55875001Y80250002D03*
X-55875001Y81200001D03*
X-55875001Y82150000D03*
X-53600001Y82150000D03*
X-53600001Y81200001D03*
X-53600001Y80250002D03*
G04 #@! TD*
D21*
G04 #@! TO.C,TP10*
X-8600000Y65100000D03*
G04 #@! TD*
D25*
G04 #@! TO.C,R58*
X-57700002Y83825001D03*
X-57700002Y82175001D03*
G04 #@! TD*
D33*
G04 #@! TO.C,C82*
X-59650000Y77500000D03*
X-58100000Y77500000D03*
G04 #@! TD*
D35*
G04 #@! TO.C,U8*
X-53800000Y67912441D03*
X-53300001Y67662439D03*
X-54299999Y67662439D03*
G04 #@! TD*
D36*
G04 #@! TO.C,D3*
X-52620000Y65880000D03*
X-52620000Y66680000D03*
G04 #@! TD*
D27*
G04 #@! TO.C,C10*
X-45080001Y72534877D03*
X-45080001Y73494877D03*
G04 #@! TD*
D24*
G04 #@! TO.C,C62*
X4490001Y76600000D03*
X4490001Y78150000D03*
G04 #@! TD*
D23*
G04 #@! TO.C,C35*
X-4987441Y85149002D03*
X-4987441Y83599002D03*
G04 #@! TD*
D33*
G04 #@! TO.C,C76*
X-59650000Y75933333D03*
X-58100000Y75933333D03*
G04 #@! TD*
D23*
G04 #@! TO.C,C34*
X-6582442Y85147998D03*
X-6582442Y83597998D03*
G04 #@! TD*
D10*
G04 #@! TO.C,J6*
X-37114999Y84100000D03*
D11*
X-34574999Y84100000D03*
X-32035000Y84100000D03*
G04 #@! TD*
D27*
G04 #@! TO.C,C7*
X-48879996Y72534881D03*
X-48879996Y73494881D03*
G04 #@! TD*
D22*
G04 #@! TO.C,R5*
X-41675000Y72580012D03*
X-43325000Y72580012D03*
G04 #@! TD*
D36*
G04 #@! TO.C,D2*
X-54980000Y66720000D03*
X-54980000Y65920000D03*
G04 #@! TD*
D37*
G04 #@! TO.C,U5*
X-1919288Y80222183D03*
X-969289Y80222183D03*
X-19290Y80222183D03*
X-19290Y77947183D03*
X-969289Y77947183D03*
X-1919288Y77947183D03*
G04 #@! TD*
D38*
G04 #@! TO.C,C60*
X4500000Y69400000D03*
X4500000Y67500002D03*
G04 #@! TD*
D26*
G04 #@! TO.C,C70*
X-53500000Y78650005D03*
X-55050000Y78650005D03*
G04 #@! TD*
D39*
G04 #@! TO.C,U10*
X-37600000Y68739999D03*
X-37600000Y70009999D03*
X-37600001Y71279999D03*
X-37600000Y72549999D03*
X-37600000Y73819999D03*
X-37600000Y75089999D03*
X-37600000Y76359999D03*
X-37600001Y77629999D03*
X-37600000Y78899999D03*
X-37600000Y80169999D03*
X-28300000Y80169999D03*
X-28300000Y78899999D03*
X-28299999Y77629999D03*
X-28300000Y76359999D03*
X-28300000Y75089999D03*
X-28300000Y73819999D03*
X-28300000Y72549999D03*
X-28299999Y71279999D03*
X-28300000Y70009999D03*
X-28300000Y68739999D03*
G04 #@! TD*
D22*
G04 #@! TO.C,R22*
X-74725001Y73800000D03*
X-76375001Y73800000D03*
G04 #@! TD*
G04 #@! TO.C,R15*
X-74725705Y75400000D03*
X-76375705Y75400000D03*
G04 #@! TD*
D24*
G04 #@! TO.C,C26*
X-51800000Y72000000D03*
X-51800000Y73550000D03*
G04 #@! TD*
D40*
G04 #@! TO.C,L3*
X-53500001Y75550004D03*
X-56500001Y75550004D03*
G04 #@! TD*
M02*
