G04 #@! TF.GenerationSoftware,KiCad,Pcbnew,9.0.4*
G04 #@! TF.CreationDate,2026-06-30T21:14:13-04:00*
G04 #@! TF.ProjectId,Pocket-Lab-Bench-Power,506f636b-6574-42d4-9c61-622d42656e63,REV1*
G04 #@! TF.SameCoordinates,Original*
G04 #@! TF.FileFunction,Paste,Bot*
G04 #@! TF.FilePolarity,Positive*
%FSLAX46Y46*%
G04 Gerber Fmt 4.6, Leading zero omitted, Abs format (unit mm)*
G04 Created by KiCad (PCBNEW 9.0.4) date 2026-06-30 21:14:13*
%MOMM*%
%LPD*%
G01*
G04 APERTURE LIST*
G04 Aperture macros list*
%AMRoundRect*
0 Rectangle with rounded corners*
0 $1 Rounding radius*
0 $2 $3 $4 $5 $6 $7 $8 $9 X,Y pos of 4 corners*
0 Add a 4 corners polygon primitive as box body*
4,1,4,$2,$3,$4,$5,$6,$7,$8,$9,$2,$3,0*
0 Add four circle primitives for the rounded corners*
1,1,$1+$1,$2,$3*
1,1,$1+$1,$4,$5*
1,1,$1+$1,$6,$7*
1,1,$1+$1,$8,$9*
0 Add four rect primitives between the rounded corners*
20,1,$1+$1,$2,$3,$4,$5,0*
20,1,$1+$1,$4,$5,$6,$7,0*
20,1,$1+$1,$6,$7,$8,$9,0*
20,1,$1+$1,$8,$9,$2,$3,0*%
G04 Aperture macros list end*
%ADD10C,0.000000*%
%ADD11RoundRect,0.200000X0.200000X0.275000X-0.200000X0.275000X-0.200000X-0.275000X0.200000X-0.275000X0*%
%ADD12RoundRect,0.225000X-0.250000X0.225000X-0.250000X-0.225000X0.250000X-0.225000X0.250000X0.225000X0*%
%ADD13RoundRect,0.225000X0.250000X-0.225000X0.250000X0.225000X-0.250000X0.225000X-0.250000X-0.225000X0*%
%ADD14RoundRect,0.200000X-0.275000X0.200000X-0.275000X-0.200000X0.275000X-0.200000X0.275000X0.200000X0*%
%ADD15RoundRect,0.225000X0.225000X0.250000X-0.225000X0.250000X-0.225000X-0.250000X0.225000X-0.250000X0*%
%ADD16RoundRect,0.140000X0.170000X-0.140000X0.170000X0.140000X-0.170000X0.140000X-0.170000X-0.140000X0*%
%ADD17RoundRect,0.135000X-0.135000X-0.185000X0.135000X-0.185000X0.135000X0.185000X-0.135000X0.185000X0*%
%ADD18RoundRect,0.250000X1.600000X-0.300000X1.600000X0.300000X-1.600000X0.300000X-1.600000X-0.300000X0*%
%ADD19RoundRect,0.140000X-0.140000X-0.170000X0.140000X-0.170000X0.140000X0.170000X-0.140000X0.170000X0*%
%ADD20RoundRect,0.225000X-0.225000X-0.250000X0.225000X-0.250000X0.225000X0.250000X-0.225000X0.250000X0*%
%ADD21RoundRect,0.150000X-0.512500X-0.150000X0.512500X-0.150000X0.512500X0.150000X-0.512500X0.150000X0*%
%ADD22R,0.600000X0.500000*%
%ADD23RoundRect,0.150000X-0.150000X0.512500X-0.150000X-0.512500X0.150000X-0.512500X0.150000X0.512500X0*%
%ADD24RoundRect,0.250000X-0.475000X0.250000X-0.475000X-0.250000X0.475000X-0.250000X0.475000X0.250000X0*%
%ADD25RoundRect,0.150000X-0.875000X-0.150000X0.875000X-0.150000X0.875000X0.150000X-0.875000X0.150000X0*%
%ADD26RoundRect,0.250000X0.300000X1.600000X-0.300000X1.600000X-0.300000X-1.600000X0.300000X-1.600000X0*%
G04 APERTURE END LIST*
D10*
G04 #@! TO.C,U8*
G36*
X-54235567Y67766470D02*
G01*
X-54226113Y67763602D01*
X-54217398Y67758944D01*
X-54209760Y67752678D01*
X-54203494Y67745040D01*
X-54198836Y67736325D01*
X-54195968Y67726871D01*
X-54194998Y67717039D01*
X-54194998Y67607839D01*
X-54195968Y67598007D01*
X-54198836Y67588553D01*
X-54203494Y67579838D01*
X-54209760Y67572200D01*
X-54217398Y67565934D01*
X-54226113Y67561276D01*
X-54235567Y67558408D01*
X-54245399Y67557440D01*
X-54354599Y67557440D01*
X-54364431Y67558408D01*
X-54373885Y67561276D01*
X-54382600Y67565934D01*
X-54390238Y67572200D01*
X-54396504Y67579838D01*
X-54401162Y67588553D01*
X-54404030Y67598007D01*
X-54404998Y67607839D01*
X-54404998Y67717039D01*
X-54404030Y67726871D01*
X-54401162Y67736325D01*
X-54396504Y67745040D01*
X-54390238Y67752678D01*
X-54382600Y67758944D01*
X-54373885Y67763602D01*
X-54364431Y67766470D01*
X-54354599Y67767440D01*
X-54245399Y67767440D01*
X-54235567Y67766470D01*
G37*
G36*
X-53735568Y68016472D02*
G01*
X-53726114Y68013604D01*
X-53717399Y68008946D01*
X-53709761Y68002680D01*
X-53703495Y67995042D01*
X-53698837Y67986327D01*
X-53695969Y67976873D01*
X-53695001Y67967041D01*
X-53695001Y67857841D01*
X-53695969Y67848009D01*
X-53698837Y67838555D01*
X-53703495Y67829840D01*
X-53709761Y67822202D01*
X-53717399Y67815936D01*
X-53726114Y67811278D01*
X-53735568Y67808410D01*
X-53745400Y67807440D01*
X-53854600Y67807440D01*
X-53864432Y67808410D01*
X-53873886Y67811278D01*
X-53882601Y67815936D01*
X-53890239Y67822202D01*
X-53896505Y67829840D01*
X-53901163Y67838555D01*
X-53904031Y67848009D01*
X-53904999Y67857841D01*
X-53904999Y67967041D01*
X-53904031Y67976873D01*
X-53901163Y67986327D01*
X-53896505Y67995042D01*
X-53890239Y68002680D01*
X-53882601Y68008946D01*
X-53873886Y68013604D01*
X-53864432Y68016472D01*
X-53854600Y68017440D01*
X-53745400Y68017440D01*
X-53735568Y68016472D01*
G37*
G36*
X-53235569Y67766470D02*
G01*
X-53226115Y67763602D01*
X-53217400Y67758944D01*
X-53209762Y67752678D01*
X-53203496Y67745040D01*
X-53198838Y67736325D01*
X-53195970Y67726871D01*
X-53195002Y67717039D01*
X-53195002Y67607839D01*
X-53195970Y67598007D01*
X-53198838Y67588553D01*
X-53203496Y67579838D01*
X-53209762Y67572200D01*
X-53217400Y67565934D01*
X-53226115Y67561276D01*
X-53235569Y67558408D01*
X-53245401Y67557440D01*
X-53354601Y67557440D01*
X-53364433Y67558408D01*
X-53373887Y67561276D01*
X-53382602Y67565934D01*
X-53390240Y67572200D01*
X-53396506Y67579838D01*
X-53401164Y67588553D01*
X-53404032Y67598007D01*
X-53405002Y67607839D01*
X-53405002Y67717039D01*
X-53404032Y67726871D01*
X-53401164Y67736325D01*
X-53396506Y67745040D01*
X-53390240Y67752678D01*
X-53382602Y67758944D01*
X-53373887Y67763602D01*
X-53364433Y67766470D01*
X-53354601Y67767440D01*
X-53245401Y67767440D01*
X-53235569Y67766470D01*
G37*
G04 #@! TD*
D11*
G04 #@! TO.C,R16*
X-74725707Y72200000D03*
X-76375707Y72200000D03*
G04 #@! TD*
D12*
G04 #@! TO.C,C32*
X-8158443Y85149002D03*
X-8158443Y83599002D03*
G04 #@! TD*
D13*
G04 #@! TO.C,C33*
X-3382440Y83599001D03*
X-3382440Y85149001D03*
G04 #@! TD*
D14*
G04 #@! TO.C,R57*
X-57699999Y80650002D03*
X-57699999Y79000002D03*
G04 #@! TD*
D11*
G04 #@! TO.C,R18*
X-1505782Y82034683D03*
X-3155782Y82034683D03*
G04 #@! TD*
D15*
G04 #@! TO.C,C78*
X-58100000Y74366667D03*
X-59650000Y74366667D03*
G04 #@! TD*
D16*
G04 #@! TO.C,C53*
X-40940000Y68739999D03*
X-40940000Y69699999D03*
G04 #@! TD*
D12*
G04 #@! TO.C,C31*
X-1767441Y85149004D03*
X-1767441Y83599004D03*
G04 #@! TD*
D11*
G04 #@! TO.C,R23*
X-74725001Y70600000D03*
X-76375001Y70600000D03*
G04 #@! TD*
D16*
G04 #@! TO.C,C6*
X-62200000Y67920000D03*
X-62200000Y68880000D03*
G04 #@! TD*
D11*
G04 #@! TO.C,R11*
X-78049999Y64000000D03*
X-79699999Y64000000D03*
G04 #@! TD*
D16*
G04 #@! TO.C,C52*
X-39640000Y68739999D03*
X-39640000Y69699999D03*
G04 #@! TD*
D11*
G04 #@! TO.C,R19*
X1669216Y82034683D03*
X19216Y82034683D03*
G04 #@! TD*
D17*
G04 #@! TO.C,R37*
X-38464999Y81700000D03*
X-37444999Y81700000D03*
G04 #@! TD*
D18*
G04 #@! TO.C,L2*
X-6605782Y77834684D03*
X-6605782Y80834684D03*
G04 #@! TD*
D11*
G04 #@! TO.C,R24*
X-74725000Y67400000D03*
X-76375000Y67400000D03*
G04 #@! TD*
G04 #@! TO.C,R14*
X-74724999Y78600000D03*
X-76374999Y78600000D03*
G04 #@! TD*
D19*
G04 #@! TO.C,C29*
X-44013166Y74234350D03*
X-43053166Y74234350D03*
G04 #@! TD*
D13*
G04 #@! TO.C,C36*
X1594218Y77739685D03*
X1594218Y79289685D03*
G04 #@! TD*
D11*
G04 #@! TO.C,R17*
X-74724999Y69000000D03*
X-76374999Y69000000D03*
G04 #@! TD*
D13*
G04 #@! TO.C,C74*
X-59500000Y79025000D03*
X-59500000Y80575000D03*
G04 #@! TD*
D11*
G04 #@! TO.C,R21*
X-74724998Y77000000D03*
X-76374998Y77000000D03*
G04 #@! TD*
D20*
G04 #@! TO.C,C80*
X-59650000Y72800000D03*
X-58100000Y72800000D03*
G04 #@! TD*
D15*
G04 #@! TO.C,C38*
X-53392500Y83750003D03*
X-54942500Y83750003D03*
G04 #@! TD*
D13*
G04 #@! TO.C,C30*
X-3505782Y77834686D03*
X-3505782Y79384686D03*
G04 #@! TD*
D21*
G04 #@! TO.C,U15*
X-55875001Y80250002D03*
X-55875001Y81200001D03*
X-55875001Y82150000D03*
X-53600001Y82150000D03*
X-53600001Y81200001D03*
X-53600001Y80250002D03*
G04 #@! TD*
D14*
G04 #@! TO.C,R58*
X-57700002Y83825001D03*
X-57700002Y82175001D03*
G04 #@! TD*
D20*
G04 #@! TO.C,C82*
X-59650000Y77500000D03*
X-58100000Y77500000D03*
G04 #@! TD*
D22*
G04 #@! TO.C,D3*
X-52620000Y65880000D03*
X-52620000Y66680000D03*
G04 #@! TD*
D16*
G04 #@! TO.C,C10*
X-45080001Y72534877D03*
X-45080001Y73494877D03*
G04 #@! TD*
D13*
G04 #@! TO.C,C62*
X4490001Y76600000D03*
X4490001Y78150000D03*
G04 #@! TD*
D12*
G04 #@! TO.C,C35*
X-4987441Y85149002D03*
X-4987441Y83599002D03*
G04 #@! TD*
D20*
G04 #@! TO.C,C76*
X-59650000Y75933333D03*
X-58100000Y75933333D03*
G04 #@! TD*
D12*
G04 #@! TO.C,C34*
X-6582442Y85147998D03*
X-6582442Y83597998D03*
G04 #@! TD*
D16*
G04 #@! TO.C,C7*
X-48879996Y72534881D03*
X-48879996Y73494881D03*
G04 #@! TD*
D11*
G04 #@! TO.C,R5*
X-41675000Y72580012D03*
X-43325000Y72580012D03*
G04 #@! TD*
D22*
G04 #@! TO.C,D2*
X-54980000Y66720000D03*
X-54980000Y65920000D03*
G04 #@! TD*
D23*
G04 #@! TO.C,U5*
X-1919288Y80222183D03*
X-969289Y80222183D03*
X-19290Y80222183D03*
X-19290Y77947183D03*
X-969289Y77947183D03*
X-1919288Y77947183D03*
G04 #@! TD*
D24*
G04 #@! TO.C,C60*
X4500000Y69400000D03*
X4500000Y67500002D03*
G04 #@! TD*
D15*
G04 #@! TO.C,C70*
X-53500000Y78650005D03*
X-55050000Y78650005D03*
G04 #@! TD*
D25*
G04 #@! TO.C,U10*
X-37600000Y68739999D03*
X-37600000Y70009999D03*
X-37600001Y71279999D03*
X-37600000Y72549999D03*
X-37600000Y73819999D03*
X-37600000Y75089999D03*
X-37600000Y76359999D03*
X-37600001Y77629999D03*
X-37600000Y78899999D03*
X-37600000Y80169999D03*
X-28300000Y80169999D03*
X-28300000Y78899999D03*
X-28299999Y77629999D03*
X-28300000Y76359999D03*
X-28300000Y75089999D03*
X-28300000Y73819999D03*
X-28300000Y72549999D03*
X-28299999Y71279999D03*
X-28300000Y70009999D03*
X-28300000Y68739999D03*
G04 #@! TD*
D11*
G04 #@! TO.C,R22*
X-74725001Y73800000D03*
X-76375001Y73800000D03*
G04 #@! TD*
G04 #@! TO.C,R15*
X-74725705Y75400000D03*
X-76375705Y75400000D03*
G04 #@! TD*
D13*
G04 #@! TO.C,C26*
X-51800000Y72000000D03*
X-51800000Y73550000D03*
G04 #@! TD*
D26*
G04 #@! TO.C,L3*
X-53500001Y75550004D03*
X-56500001Y75550004D03*
G04 #@! TD*
M02*
