G04 #@! TF.GenerationSoftware,KiCad,Pcbnew,9.0.4*
G04 #@! TF.CreationDate,2026-06-30T21:14:12-04:00*
G04 #@! TF.ProjectId,Pocket-Lab-Bench-Power,506f636b-6574-42d4-9c61-622d42656e63,REV1*
G04 #@! TF.SameCoordinates,Original*
G04 #@! TF.FileFunction,Legend,Top*
G04 #@! TF.FilePolarity,Positive*
%FSLAX46Y46*%
G04 Gerber Fmt 4.6, Leading zero omitted, Abs format (unit mm)*
G04 Created by KiCad (PCBNEW 9.0.4) date 2026-06-30 21:14:12*
%MOMM*%
%LPD*%
G01*
G04 APERTURE LIST*
G04 Aperture macros list*
%AMRoundRect*
0 Rectangle with rounded corners*
0 $1 Rounding radius*
0 $2 $3 $4 $5 $6 $7 $8 $9 X,Y pos of 4 corners*
0 Add a 4 corners polygon primitive as box body*
4,1,4,$2,$3,$4,$5,$6,$7,$8,$9,$2,$3,0*
0 Add four circle primitives for the rounded corners*
1,1,$1+$1,$2,$3*
1,1,$1+$1,$4,$5*
1,1,$1+$1,$6,$7*
1,1,$1+$1,$8,$9*
0 Add four rect primitives between the rounded corners*
20,1,$1+$1,$2,$3,$4,$5,0*
20,1,$1+$1,$4,$5,$6,$7,0*
20,1,$1+$1,$6,$7,$8,$9,0*
20,1,$1+$1,$8,$9,$2,$3,0*%
%AMOutline5P*
0 Free polygon, 5 corners , with rotation*
0 The origin of the aperture is its center*
0 number of corners: always 5*
0 $1 to $10 corner X, Y*
0 $11 Rotation angle, in degrees counterclockwise*
0 create outline with 5 corners*
4,1,5,$1,$2,$3,$4,$5,$6,$7,$8,$9,$10,$1,$2,$11*%
%AMOutline6P*
0 Free polygon, 6 corners , with rotation*
0 The origin of the aperture is its center*
0 number of corners: always 6*
0 $1 to $12 corner X, Y*
0 $13 Rotation angle, in degrees counterclockwise*
0 create outline with 6 corners*
4,1,6,$1,$2,$3,$4,$5,$6,$7,$8,$9,$10,$11,$12,$1,$2,$13*%
%AMOutline7P*
0 Free polygon, 7 corners , with rotation*
0 The origin of the aperture is its center*
0 number of corners: always 7*
0 $1 to $14 corner X, Y*
0 $15 Rotation angle, in degrees counterclockwise*
0 create outline with 7 corners*
4,1,7,$1,$2,$3,$4,$5,$6,$7,$8,$9,$10,$11,$12,$13,$14,$1,$2,$15*%
%AMOutline8P*
0 Free polygon, 8 corners , with rotation*
0 The origin of the aperture is its center*
0 number of corners: always 8*
0 $1 to $16 corner X, Y*
0 $17 Rotation angle, in degrees counterclockwise*
0 create outline with 8 corners*
4,1,8,$1,$2,$3,$4,$5,$6,$7,$8,$9,$10,$11,$12,$13,$14,$15,$16,$1,$2,$17*%
%AMFreePoly0*
4,1,19,0.335202,0.335431,0.349847,0.300076,0.349847,0.000199,0.349898,0.000076,0.349898,-0.299923,0.335253,-0.335278,0.299898,-0.349923,-0.300101,-0.349923,-0.335456,-0.335278,-0.350101,-0.299923,-0.350101,0.000076,-0.335456,0.035431,-0.300101,0.050076,-0.000140,0.050076,-0.000140,0.300076,0.014505,0.335431,0.049860,0.350076,0.299847,0.350076,0.335202,0.335431,0.335202,0.335431,
$1*%
%AMFreePoly1*
4,1,19,0.335278,0.335278,0.349923,0.299923,0.349923,-0.000051,0.349872,-0.000174,0.349872,-0.300076,0.335227,-0.335431,0.299872,-0.350076,0.049886,-0.350076,0.014531,-0.335431,-0.000114,-0.300076,-0.000114,-0.050051,-0.300076,-0.050051,-0.335431,-0.035406,-0.350076,-0.000051,-0.350076,0.299923,-0.335431,0.335278,-0.300076,0.349923,0.299923,0.349923,0.335278,0.335278,0.335278,0.335278,
$1*%
%AMFreePoly2*
4,1,19,0.335431,0.335304,0.350076,0.299949,0.350076,-0.000051,0.335431,-0.035406,0.300076,-0.050051,0.000114,-0.050051,0.000114,-0.300050,-0.014531,-0.335405,-0.049886,-0.350050,-0.299872,-0.350050,-0.335227,-0.335405,-0.349872,-0.300050,-0.349872,-0.000174,-0.349923,-0.000051,-0.349923,0.299949,-0.335278,0.335304,-0.299923,0.349949,0.300076,0.349949,0.335431,0.335304,0.335431,0.335304,
$1*%
%AMFreePoly3*
4,1,19,-0.014531,0.335431,0.000114,0.300076,0.000114,0.050076,0.300076,0.050076,0.335431,0.035431,0.350076,0.000076,0.350076,-0.299923,0.335431,-0.335278,0.300076,-0.349923,-0.299923,-0.349923,-0.335278,-0.335278,-0.349923,-0.299923,-0.349923,0.000076,-0.349872,0.000199,-0.349872,0.300076,-0.335227,0.335431,-0.299872,0.350076,-0.049886,0.350076,-0.014531,0.335431,-0.014531,0.335431,
$1*%
%AMFreePoly4*
4,1,5,0.165000,-1.700000,-0.165000,-1.700000,-0.165000,1.700000,0.165000,1.700000,0.165000,-1.700000,0.165000,-1.700000,$1*%
G04 Aperture macros list end*
%ADD10C,0.150000*%
%ADD11C,0.600000*%
%ADD12C,0.200000*%
%ADD13C,0.120000*%
%ADD14C,0.250000*%
%ADD15C,0.127000*%
%ADD16C,0.152400*%
%ADD17C,0.060000*%
%ADD18C,0.000000*%
%ADD19RoundRect,0.200000X-0.200000X-0.275000X0.200000X-0.275000X0.200000X0.275000X-0.200000X0.275000X0*%
%ADD20RoundRect,0.135000X-0.135000X-0.185000X0.135000X-0.185000X0.135000X0.185000X-0.135000X0.185000X0*%
%ADD21RoundRect,0.250000X0.475000X-0.250000X0.475000X0.250000X-0.475000X0.250000X-0.475000X-0.250000X0*%
%ADD22RoundRect,0.200000X0.200000X0.275000X-0.200000X0.275000X-0.200000X-0.275000X0.200000X-0.275000X0*%
%ADD23RoundRect,0.250000X-0.362500X-1.425000X0.362500X-1.425000X0.362500X1.425000X-0.362500X1.425000X0*%
%ADD24RoundRect,0.140000X-0.170000X0.140000X-0.170000X-0.140000X0.170000X-0.140000X0.170000X0.140000X0*%
%ADD25RoundRect,0.225000X-0.250000X0.225000X-0.250000X-0.225000X0.250000X-0.225000X0.250000X0.225000X0*%
%ADD26RoundRect,0.250000X1.425000X-0.362500X1.425000X0.362500X-1.425000X0.362500X-1.425000X-0.362500X0*%
%ADD27RoundRect,0.140000X0.140000X0.170000X-0.140000X0.170000X-0.140000X-0.170000X0.140000X-0.170000X0*%
%ADD28RoundRect,0.135000X0.185000X-0.135000X0.185000X0.135000X-0.185000X0.135000X-0.185000X-0.135000X0*%
%ADD29R,1.700000X1.700000*%
%ADD30C,1.700000*%
%ADD31RoundRect,0.225000X0.250000X-0.225000X0.250000X0.225000X-0.250000X0.225000X-0.250000X-0.225000X0*%
%ADD32RoundRect,0.140000X-0.140000X-0.170000X0.140000X-0.170000X0.140000X0.170000X-0.140000X0.170000X0*%
%ADD33RoundRect,0.225000X0.225000X0.250000X-0.225000X0.250000X-0.225000X-0.250000X0.225000X-0.250000X0*%
%ADD34FreePoly0,90.000000*%
%ADD35R,0.250000X0.600000*%
%ADD36FreePoly1,90.000000*%
%ADD37R,2.400000X0.300000*%
%ADD38FreePoly2,90.000000*%
%ADD39FreePoly3,90.000000*%
%ADD40Outline6P,-0.100000X0.335000X-0.060000X0.375000X0.060000X0.375000X0.100000X0.335000X0.100000X-0.375000X-0.100000X-0.375000X90.000000*%
%ADD41Outline7P,-0.100000X0.310000X-0.060000X0.350000X0.060000X0.350000X0.100000X0.310000X0.100000X-0.310000X0.060000X-0.350000X-0.100000X-0.350000X0.000000*%
%ADD42R,0.599999X0.200000*%
%ADD43Outline6P,-0.100000X0.350000X0.100000X0.350000X0.100000X-0.310000X0.060000X-0.350000X-0.060000X-0.350000X-0.100000X-0.310000X270.000000*%
%ADD44Outline7P,-0.100000X0.350000X0.060000X0.350000X0.100000X0.310000X0.100000X-0.310000X0.060000X-0.350000X-0.060000X-0.350000X-0.100000X-0.310000X0.000000*%
%ADD45R,0.200000X0.599999*%
%ADD46Outline7P,-0.100000X0.310000X-0.060000X0.350000X0.100000X0.350000X0.100000X-0.310000X0.060000X-0.350000X-0.060000X-0.350000X-0.100000X-0.310000X0.000000*%
%ADD47Outline6P,-0.100000X0.350000X0.100000X0.350000X0.100000X-0.310000X0.060000X-0.350000X-0.060000X-0.350000X-0.100000X-0.310000X90.000000*%
%ADD48R,0.700001X0.200000*%
%ADD49R,0.650001X0.200000*%
%ADD50R,0.680001X0.200000*%
%ADD51Outline7P,-0.100000X0.310000X-0.060000X0.350000X0.060000X0.350000X0.100000X0.310000X0.100000X-0.350000X-0.060000X-0.350000X-0.100000X-0.310000X0.000000*%
%ADD52Outline6P,-0.100000X0.335000X-0.060000X0.375000X0.060000X0.375000X0.100000X0.335000X0.100000X-0.375000X-0.100000X-0.375000X270.000000*%
%ADD53R,0.200000X1.000000*%
%ADD54R,0.200000X0.950001*%
%ADD55RoundRect,0.225000X-0.225000X-0.250000X0.225000X-0.250000X0.225000X0.250000X-0.225000X0.250000X0*%
%ADD56RoundRect,0.200000X-0.275000X0.200000X-0.275000X-0.200000X0.275000X-0.200000X0.275000X0.200000X0*%
%ADD57C,3.200000*%
%ADD58RoundRect,0.102000X0.900000X0.900000X-0.900000X0.900000X-0.900000X-0.900000X0.900000X-0.900000X0*%
%ADD59C,2.004000*%
%ADD60O,3.204000X6.204000*%
%ADD61RoundRect,0.250000X-0.475000X0.250000X-0.475000X-0.250000X0.475000X-0.250000X0.475000X0.250000X0*%
%ADD62R,2.350000X3.500000*%
%ADD63RoundRect,0.140000X0.170000X-0.140000X0.170000X0.140000X-0.170000X0.140000X-0.170000X-0.140000X0*%
%ADD64R,0.508000X0.977900*%
%ADD65C,1.500000*%
%ADD66RoundRect,0.075000X0.650000X0.075000X-0.650000X0.075000X-0.650000X-0.075000X0.650000X-0.075000X0*%
%ADD67RoundRect,0.200000X0.275000X-0.200000X0.275000X0.200000X-0.275000X0.200000X-0.275000X-0.200000X0*%
%ADD68C,0.700000*%
%ADD69C,1.200000*%
%ADD70R,0.300000X1.000000*%
%ADD71RoundRect,0.075000X-0.650000X-0.075000X0.650000X-0.075000X0.650000X0.075000X-0.650000X0.075000X0*%
%ADD72C,2.800000*%
%ADD73O,1.200000X4.200000*%
%ADD74O,2.800000X1.200000*%
%ADD75R,2.241000X2.047000*%
%ADD76RoundRect,0.218750X-0.256250X0.218750X-0.256250X-0.218750X0.256250X-0.218750X0.256250X0.218750X0*%
%ADD77R,0.192474X0.881065*%
%ADD78R,0.881065X0.192474*%
%ADD79R,2.849999X2.849999*%
%ADD80RoundRect,0.093750X0.093750X0.106250X-0.093750X0.106250X-0.093750X-0.106250X0.093750X-0.106250X0*%
%ADD81R,1.000000X1.600000*%
%ADD82R,1.920000X6.500000*%
%ADD83R,0.558800X1.460500*%
%ADD84R,0.599999X0.240000*%
%ADD85R,0.240000X0.599999*%
%ADD86R,0.240000X3.400001*%
%ADD87FreePoly4,0.000000*%
%ADD88C,0.304800*%
%ADD89RoundRect,0.250000X-0.600000X-0.750000X0.600000X-0.750000X0.600000X0.750000X-0.600000X0.750000X0*%
%ADD90O,1.700000X2.000000*%
G04 APERTURE END LIST*
D10*
X-77671429Y62625050D02*
X-77557143Y62586955D01*
X-77557143Y62586955D02*
X-77366667Y62586955D01*
X-77366667Y62586955D02*
X-77290476Y62625050D01*
X-77290476Y62625050D02*
X-77252381Y62663146D01*
X-77252381Y62663146D02*
X-77214286Y62739336D01*
X-77214286Y62739336D02*
X-77214286Y62815527D01*
X-77214286Y62815527D02*
X-77252381Y62891717D01*
X-77252381Y62891717D02*
X-77290476Y62929812D01*
X-77290476Y62929812D02*
X-77366667Y62967908D01*
X-77366667Y62967908D02*
X-77519048Y63006003D01*
X-77519048Y63006003D02*
X-77595238Y63044098D01*
X-77595238Y63044098D02*
X-77633333Y63082193D01*
X-77633333Y63082193D02*
X-77671429Y63158384D01*
X-77671429Y63158384D02*
X-77671429Y63234574D01*
X-77671429Y63234574D02*
X-77633333Y63310765D01*
X-77633333Y63310765D02*
X-77595238Y63348860D01*
X-77595238Y63348860D02*
X-77519048Y63386955D01*
X-77519048Y63386955D02*
X-77328571Y63386955D01*
X-77328571Y63386955D02*
X-77214286Y63348860D01*
X-76871428Y62586955D02*
X-76871428Y63386955D01*
X-76871428Y63386955D02*
X-76680952Y63386955D01*
X-76680952Y63386955D02*
X-76566666Y63348860D01*
X-76566666Y63348860D02*
X-76490476Y63272670D01*
X-76490476Y63272670D02*
X-76452381Y63196479D01*
X-76452381Y63196479D02*
X-76414285Y63044098D01*
X-76414285Y63044098D02*
X-76414285Y62929812D01*
X-76414285Y62929812D02*
X-76452381Y62777431D01*
X-76452381Y62777431D02*
X-76490476Y62701241D01*
X-76490476Y62701241D02*
X-76566666Y62625050D01*
X-76566666Y62625050D02*
X-76680952Y62586955D01*
X-76680952Y62586955D02*
X-76871428Y62586955D01*
X-76109524Y62815527D02*
X-75728571Y62815527D01*
X-76185714Y62586955D02*
X-75919047Y63386955D01*
X-75919047Y63386955D02*
X-75652381Y62586955D01*
X-42537705Y61252381D02*
X-42537705Y61709524D01*
X-41737705Y61480952D02*
X-42537705Y61480952D01*
X-42156753Y61976191D02*
X-42156753Y62242857D01*
X-41737705Y62357143D02*
X-41737705Y61976191D01*
X-41737705Y61976191D02*
X-42537705Y61976191D01*
X-42537705Y61976191D02*
X-42537705Y62357143D01*
X-41737705Y62700001D02*
X-42537705Y62700001D01*
X-42537705Y62700001D02*
X-41966277Y62966667D01*
X-41966277Y62966667D02*
X-42537705Y63233334D01*
X-42537705Y63233334D02*
X-41737705Y63233334D01*
X-41737705Y63614287D02*
X-42537705Y63614287D01*
X-42537705Y63614287D02*
X-42537705Y63919049D01*
X-42537705Y63919049D02*
X-42499610Y63995239D01*
X-42499610Y63995239D02*
X-42461515Y64033334D01*
X-42461515Y64033334D02*
X-42385324Y64071430D01*
X-42385324Y64071430D02*
X-42271039Y64071430D01*
X-42271039Y64071430D02*
X-42194848Y64033334D01*
X-42194848Y64033334D02*
X-42156753Y63995239D01*
X-42156753Y63995239D02*
X-42118658Y63919049D01*
X-42118658Y63919049D02*
X-42118658Y63614287D01*
X-33210840Y82805705D02*
X-33210840Y82158086D01*
X-33210840Y82158086D02*
X-33172745Y82081896D01*
X-33172745Y82081896D02*
X-33134650Y82043800D01*
X-33134650Y82043800D02*
X-33058459Y82005705D01*
X-33058459Y82005705D02*
X-32906078Y82005705D01*
X-32906078Y82005705D02*
X-32829888Y82043800D01*
X-32829888Y82043800D02*
X-32791793Y82081896D01*
X-32791793Y82081896D02*
X-32753697Y82158086D01*
X-32753697Y82158086D02*
X-32753697Y82805705D01*
X-32372745Y82005705D02*
X-32372745Y82805705D01*
X-32372745Y82805705D02*
X-32067983Y82805705D01*
X-32067983Y82805705D02*
X-31991793Y82767610D01*
X-31991793Y82767610D02*
X-31953698Y82729515D01*
X-31953698Y82729515D02*
X-31915602Y82653324D01*
X-31915602Y82653324D02*
X-31915602Y82539039D01*
X-31915602Y82539039D02*
X-31953698Y82462848D01*
X-31953698Y82462848D02*
X-31991793Y82424753D01*
X-31991793Y82424753D02*
X-32067983Y82386658D01*
X-32067983Y82386658D02*
X-32372745Y82386658D01*
X-31572745Y82005705D02*
X-31572745Y82805705D01*
X-31572745Y82805705D02*
X-31382269Y82805705D01*
X-31382269Y82805705D02*
X-31267983Y82767610D01*
X-31267983Y82767610D02*
X-31191793Y82691420D01*
X-31191793Y82691420D02*
X-31153698Y82615229D01*
X-31153698Y82615229D02*
X-31115602Y82462848D01*
X-31115602Y82462848D02*
X-31115602Y82348562D01*
X-31115602Y82348562D02*
X-31153698Y82196181D01*
X-31153698Y82196181D02*
X-31191793Y82119991D01*
X-31191793Y82119991D02*
X-31267983Y82043800D01*
X-31267983Y82043800D02*
X-31382269Y82005705D01*
X-31382269Y82005705D02*
X-31572745Y82005705D01*
X-30772745Y82005705D02*
X-30772745Y82805705D01*
X-39791793Y64267610D02*
X-39867983Y64305705D01*
X-39867983Y64305705D02*
X-39982269Y64305705D01*
X-39982269Y64305705D02*
X-40096555Y64267610D01*
X-40096555Y64267610D02*
X-40172745Y64191420D01*
X-40172745Y64191420D02*
X-40210840Y64115229D01*
X-40210840Y64115229D02*
X-40248936Y63962848D01*
X-40248936Y63962848D02*
X-40248936Y63848562D01*
X-40248936Y63848562D02*
X-40210840Y63696181D01*
X-40210840Y63696181D02*
X-40172745Y63619991D01*
X-40172745Y63619991D02*
X-40096555Y63543800D01*
X-40096555Y63543800D02*
X-39982269Y63505705D01*
X-39982269Y63505705D02*
X-39906078Y63505705D01*
X-39906078Y63505705D02*
X-39791793Y63543800D01*
X-39791793Y63543800D02*
X-39753697Y63581896D01*
X-39753697Y63581896D02*
X-39753697Y63848562D01*
X-39753697Y63848562D02*
X-39906078Y63848562D01*
X-39410840Y64039039D02*
X-39410840Y63505705D01*
X-39410840Y63962848D02*
X-39372745Y64000943D01*
X-39372745Y64000943D02*
X-39296555Y64039039D01*
X-39296555Y64039039D02*
X-39182269Y64039039D01*
X-39182269Y64039039D02*
X-39106078Y64000943D01*
X-39106078Y64000943D02*
X-39067983Y63924753D01*
X-39067983Y63924753D02*
X-39067983Y63505705D01*
X-38344173Y63505705D02*
X-38344173Y64305705D01*
X-38344173Y63543800D02*
X-38420364Y63505705D01*
X-38420364Y63505705D02*
X-38572745Y63505705D01*
X-38572745Y63505705D02*
X-38648935Y63543800D01*
X-38648935Y63543800D02*
X-38687030Y63581896D01*
X-38687030Y63581896D02*
X-38725126Y63658086D01*
X-38725126Y63658086D02*
X-38725126Y63886658D01*
X-38725126Y63886658D02*
X-38687030Y63962848D01*
X-38687030Y63962848D02*
X-38648935Y64000943D01*
X-38648935Y64000943D02*
X-38572745Y64039039D01*
X-38572745Y64039039D02*
X-38420364Y64039039D01*
X-38420364Y64039039D02*
X-38344173Y64000943D01*
X-34180163Y82787031D02*
X-34180163Y82291793D01*
X-34180163Y82291793D02*
X-34484925Y82558459D01*
X-34484925Y82558459D02*
X-34484925Y82444174D01*
X-34484925Y82444174D02*
X-34523020Y82367983D01*
X-34523020Y82367983D02*
X-34561115Y82329888D01*
X-34561115Y82329888D02*
X-34637306Y82291793D01*
X-34637306Y82291793D02*
X-34827782Y82291793D01*
X-34827782Y82291793D02*
X-34903972Y82329888D01*
X-34903972Y82329888D02*
X-34942067Y82367983D01*
X-34942067Y82367983D02*
X-34980163Y82444174D01*
X-34980163Y82444174D02*
X-34980163Y82672745D01*
X-34980163Y82672745D02*
X-34942067Y82748936D01*
X-34942067Y82748936D02*
X-34903972Y82787031D01*
X-34903972Y81948935D02*
X-34942067Y81910840D01*
X-34942067Y81910840D02*
X-34980163Y81948935D01*
X-34980163Y81948935D02*
X-34942067Y81987031D01*
X-34942067Y81987031D02*
X-34903972Y81948935D01*
X-34903972Y81948935D02*
X-34980163Y81948935D01*
X-34180163Y81644174D02*
X-34180163Y81148936D01*
X-34180163Y81148936D02*
X-34484925Y81415602D01*
X-34484925Y81415602D02*
X-34484925Y81301317D01*
X-34484925Y81301317D02*
X-34523020Y81225126D01*
X-34523020Y81225126D02*
X-34561115Y81187031D01*
X-34561115Y81187031D02*
X-34637306Y81148936D01*
X-34637306Y81148936D02*
X-34827782Y81148936D01*
X-34827782Y81148936D02*
X-34903972Y81187031D01*
X-34903972Y81187031D02*
X-34942067Y81225126D01*
X-34942067Y81225126D02*
X-34980163Y81301317D01*
X-34980163Y81301317D02*
X-34980163Y81529888D01*
X-34980163Y81529888D02*
X-34942067Y81606079D01*
X-34942067Y81606079D02*
X-34903972Y81644174D01*
X-34180163Y80920364D02*
X-34980163Y80653697D01*
X-34980163Y80653697D02*
X-34180163Y80387031D01*
X-62337650Y64272814D02*
X-62070984Y64272814D01*
X-61956698Y63853766D02*
X-62337650Y63853766D01*
X-62337650Y63853766D02*
X-62337650Y64653766D01*
X-62337650Y64653766D02*
X-61956698Y64653766D01*
X-36758258Y82291793D02*
X-36720163Y82367983D01*
X-36720163Y82367983D02*
X-36720163Y82482269D01*
X-36720163Y82482269D02*
X-36758258Y82596555D01*
X-36758258Y82596555D02*
X-36834448Y82672745D01*
X-36834448Y82672745D02*
X-36910639Y82710840D01*
X-36910639Y82710840D02*
X-37063020Y82748936D01*
X-37063020Y82748936D02*
X-37177306Y82748936D01*
X-37177306Y82748936D02*
X-37329687Y82710840D01*
X-37329687Y82710840D02*
X-37405877Y82672745D01*
X-37405877Y82672745D02*
X-37482067Y82596555D01*
X-37482067Y82596555D02*
X-37520163Y82482269D01*
X-37520163Y82482269D02*
X-37520163Y82406078D01*
X-37520163Y82406078D02*
X-37482067Y82291793D01*
X-37482067Y82291793D02*
X-37443972Y82253697D01*
X-37443972Y82253697D02*
X-37177306Y82253697D01*
X-37177306Y82253697D02*
X-37177306Y82406078D01*
X-37520163Y81910840D02*
X-36720163Y81910840D01*
X-36720163Y81910840D02*
X-37520163Y81453697D01*
X-37520163Y81453697D02*
X-36720163Y81453697D01*
X-37520163Y81072745D02*
X-36720163Y81072745D01*
X-36720163Y81072745D02*
X-36720163Y80882269D01*
X-36720163Y80882269D02*
X-36758258Y80767983D01*
X-36758258Y80767983D02*
X-36834448Y80691793D01*
X-36834448Y80691793D02*
X-36910639Y80653698D01*
X-36910639Y80653698D02*
X-37063020Y80615602D01*
X-37063020Y80615602D02*
X-37177306Y80615602D01*
X-37177306Y80615602D02*
X-37329687Y80653698D01*
X-37329687Y80653698D02*
X-37405877Y80691793D01*
X-37405877Y80691793D02*
X-37482067Y80767983D01*
X-37482067Y80767983D02*
X-37520163Y80882269D01*
X-37520163Y80882269D02*
X-37520163Y81072745D01*
X-75052382Y62625050D02*
X-74938096Y62586955D01*
X-74938096Y62586955D02*
X-74747620Y62586955D01*
X-74747620Y62586955D02*
X-74671429Y62625050D01*
X-74671429Y62625050D02*
X-74633334Y62663146D01*
X-74633334Y62663146D02*
X-74595239Y62739336D01*
X-74595239Y62739336D02*
X-74595239Y62815527D01*
X-74595239Y62815527D02*
X-74633334Y62891717D01*
X-74633334Y62891717D02*
X-74671429Y62929812D01*
X-74671429Y62929812D02*
X-74747620Y62967908D01*
X-74747620Y62967908D02*
X-74900001Y63006003D01*
X-74900001Y63006003D02*
X-74976191Y63044098D01*
X-74976191Y63044098D02*
X-75014286Y63082193D01*
X-75014286Y63082193D02*
X-75052382Y63158384D01*
X-75052382Y63158384D02*
X-75052382Y63234574D01*
X-75052382Y63234574D02*
X-75014286Y63310765D01*
X-75014286Y63310765D02*
X-74976191Y63348860D01*
X-74976191Y63348860D02*
X-74900001Y63386955D01*
X-74900001Y63386955D02*
X-74709524Y63386955D01*
X-74709524Y63386955D02*
X-74595239Y63348860D01*
X-73795238Y62663146D02*
X-73833334Y62625050D01*
X-73833334Y62625050D02*
X-73947619Y62586955D01*
X-73947619Y62586955D02*
X-74023810Y62586955D01*
X-74023810Y62586955D02*
X-74138096Y62625050D01*
X-74138096Y62625050D02*
X-74214286Y62701241D01*
X-74214286Y62701241D02*
X-74252381Y62777431D01*
X-74252381Y62777431D02*
X-74290477Y62929812D01*
X-74290477Y62929812D02*
X-74290477Y63044098D01*
X-74290477Y63044098D02*
X-74252381Y63196479D01*
X-74252381Y63196479D02*
X-74214286Y63272670D01*
X-74214286Y63272670D02*
X-74138096Y63348860D01*
X-74138096Y63348860D02*
X-74023810Y63386955D01*
X-74023810Y63386955D02*
X-73947619Y63386955D01*
X-73947619Y63386955D02*
X-73833334Y63348860D01*
X-73833334Y63348860D02*
X-73795238Y63310765D01*
X-73071429Y62586955D02*
X-73452381Y62586955D01*
X-73452381Y62586955D02*
X-73452381Y63386955D01*
D11*
X-34372967Y63127381D02*
X-34372967Y61222619D01*
X-35325348Y62175000D02*
X-33420586Y62175000D01*
D10*
X2357142Y62745181D02*
X2023809Y63221372D01*
X1785714Y62745181D02*
X1785714Y63745181D01*
X1785714Y63745181D02*
X2166666Y63745181D01*
X2166666Y63745181D02*
X2261904Y63697562D01*
X2261904Y63697562D02*
X2309523Y63649943D01*
X2309523Y63649943D02*
X2357142Y63554705D01*
X2357142Y63554705D02*
X2357142Y63411848D01*
X2357142Y63411848D02*
X2309523Y63316610D01*
X2309523Y63316610D02*
X2261904Y63268991D01*
X2261904Y63268991D02*
X2166666Y63221372D01*
X2166666Y63221372D02*
X1785714Y63221372D01*
X2690476Y63745181D02*
X3309523Y63745181D01*
X3309523Y63745181D02*
X2976190Y63364229D01*
X2976190Y63364229D02*
X3119047Y63364229D01*
X3119047Y63364229D02*
X3214285Y63316610D01*
X3214285Y63316610D02*
X3261904Y63268991D01*
X3261904Y63268991D02*
X3309523Y63173753D01*
X3309523Y63173753D02*
X3309523Y62935658D01*
X3309523Y62935658D02*
X3261904Y62840420D01*
X3261904Y62840420D02*
X3214285Y62792800D01*
X3214285Y62792800D02*
X3119047Y62745181D01*
X3119047Y62745181D02*
X2833333Y62745181D01*
X2833333Y62745181D02*
X2738095Y62792800D01*
X2738095Y62792800D02*
X2690476Y62840420D01*
X4214285Y63745181D02*
X3738095Y63745181D01*
X3738095Y63745181D02*
X3690476Y63268991D01*
X3690476Y63268991D02*
X3738095Y63316610D01*
X3738095Y63316610D02*
X3833333Y63364229D01*
X3833333Y63364229D02*
X4071428Y63364229D01*
X4071428Y63364229D02*
X4166666Y63316610D01*
X4166666Y63316610D02*
X4214285Y63268991D01*
X4214285Y63268991D02*
X4261904Y63173753D01*
X4261904Y63173753D02*
X4261904Y62935658D01*
X4261904Y62935658D02*
X4214285Y62840420D01*
X4214285Y62840420D02*
X4166666Y62792800D01*
X4166666Y62792800D02*
X4071428Y62745181D01*
X4071428Y62745181D02*
X3833333Y62745181D01*
X3833333Y62745181D02*
X3738095Y62792800D01*
X3738095Y62792800D02*
X3690476Y62840420D01*
X-36885376Y72745181D02*
X-37218709Y73221372D01*
X-37456804Y72745181D02*
X-37456804Y73745181D01*
X-37456804Y73745181D02*
X-37075852Y73745181D01*
X-37075852Y73745181D02*
X-36980614Y73697562D01*
X-36980614Y73697562D02*
X-36932995Y73649943D01*
X-36932995Y73649943D02*
X-36885376Y73554705D01*
X-36885376Y73554705D02*
X-36885376Y73411848D01*
X-36885376Y73411848D02*
X-36932995Y73316610D01*
X-36932995Y73316610D02*
X-36980614Y73268991D01*
X-36980614Y73268991D02*
X-37075852Y73221372D01*
X-37075852Y73221372D02*
X-37456804Y73221372D01*
X-36552042Y73745181D02*
X-35932995Y73745181D01*
X-35932995Y73745181D02*
X-36266328Y73364229D01*
X-36266328Y73364229D02*
X-36123471Y73364229D01*
X-36123471Y73364229D02*
X-36028233Y73316610D01*
X-36028233Y73316610D02*
X-35980614Y73268991D01*
X-35980614Y73268991D02*
X-35932995Y73173753D01*
X-35932995Y73173753D02*
X-35932995Y72935658D01*
X-35932995Y72935658D02*
X-35980614Y72840420D01*
X-35980614Y72840420D02*
X-36028233Y72792800D01*
X-36028233Y72792800D02*
X-36123471Y72745181D01*
X-36123471Y72745181D02*
X-36409185Y72745181D01*
X-36409185Y72745181D02*
X-36504423Y72792800D01*
X-36504423Y72792800D02*
X-36552042Y72840420D01*
X-35313947Y73745181D02*
X-35218709Y73745181D01*
X-35218709Y73745181D02*
X-35123471Y73697562D01*
X-35123471Y73697562D02*
X-35075852Y73649943D01*
X-35075852Y73649943D02*
X-35028233Y73554705D01*
X-35028233Y73554705D02*
X-34980614Y73364229D01*
X-34980614Y73364229D02*
X-34980614Y73126134D01*
X-34980614Y73126134D02*
X-35028233Y72935658D01*
X-35028233Y72935658D02*
X-35075852Y72840420D01*
X-35075852Y72840420D02*
X-35123471Y72792800D01*
X-35123471Y72792800D02*
X-35218709Y72745181D01*
X-35218709Y72745181D02*
X-35313947Y72745181D01*
X-35313947Y72745181D02*
X-35409185Y72792800D01*
X-35409185Y72792800D02*
X-35456804Y72840420D01*
X-35456804Y72840420D02*
X-35504423Y72935658D01*
X-35504423Y72935658D02*
X-35552042Y73126134D01*
X-35552042Y73126134D02*
X-35552042Y73364229D01*
X-35552042Y73364229D02*
X-35504423Y73554705D01*
X-35504423Y73554705D02*
X-35456804Y73649943D01*
X-35456804Y73649943D02*
X-35409185Y73697562D01*
X-35409185Y73697562D02*
X-35313947Y73745181D01*
X-17842858Y67975181D02*
X-18176191Y68451372D01*
X-18414286Y67975181D02*
X-18414286Y68975181D01*
X-18414286Y68975181D02*
X-18033334Y68975181D01*
X-18033334Y68975181D02*
X-17938096Y68927562D01*
X-17938096Y68927562D02*
X-17890477Y68879943D01*
X-17890477Y68879943D02*
X-17842858Y68784705D01*
X-17842858Y68784705D02*
X-17842858Y68641848D01*
X-17842858Y68641848D02*
X-17890477Y68546610D01*
X-17890477Y68546610D02*
X-17938096Y68498991D01*
X-17938096Y68498991D02*
X-18033334Y68451372D01*
X-18033334Y68451372D02*
X-18414286Y68451372D01*
X-17509524Y68975181D02*
X-16890477Y68975181D01*
X-16890477Y68975181D02*
X-17223810Y68594229D01*
X-17223810Y68594229D02*
X-17080953Y68594229D01*
X-17080953Y68594229D02*
X-16985715Y68546610D01*
X-16985715Y68546610D02*
X-16938096Y68498991D01*
X-16938096Y68498991D02*
X-16890477Y68403753D01*
X-16890477Y68403753D02*
X-16890477Y68165658D01*
X-16890477Y68165658D02*
X-16938096Y68070420D01*
X-16938096Y68070420D02*
X-16985715Y68022800D01*
X-16985715Y68022800D02*
X-17080953Y67975181D01*
X-17080953Y67975181D02*
X-17366667Y67975181D01*
X-17366667Y67975181D02*
X-17461905Y68022800D01*
X-17461905Y68022800D02*
X-17509524Y68070420D01*
X-16509524Y68879943D02*
X-16461905Y68927562D01*
X-16461905Y68927562D02*
X-16366667Y68975181D01*
X-16366667Y68975181D02*
X-16128572Y68975181D01*
X-16128572Y68975181D02*
X-16033334Y68927562D01*
X-16033334Y68927562D02*
X-15985715Y68879943D01*
X-15985715Y68879943D02*
X-15938096Y68784705D01*
X-15938096Y68784705D02*
X-15938096Y68689467D01*
X-15938096Y68689467D02*
X-15985715Y68546610D01*
X-15985715Y68546610D02*
X-16557143Y67975181D01*
X-16557143Y67975181D02*
X-15938096Y67975181D01*
X-48189523Y69420869D02*
X-48189523Y68773250D01*
X-48189523Y68773250D02*
X-48151428Y68697060D01*
X-48151428Y68697060D02*
X-48113333Y68658964D01*
X-48113333Y68658964D02*
X-48037142Y68620869D01*
X-48037142Y68620869D02*
X-47884761Y68620869D01*
X-47884761Y68620869D02*
X-47808571Y68658964D01*
X-47808571Y68658964D02*
X-47770476Y68697060D01*
X-47770476Y68697060D02*
X-47732380Y68773250D01*
X-47732380Y68773250D02*
X-47732380Y69420869D01*
X-47427619Y69420869D02*
X-46932381Y69420869D01*
X-46932381Y69420869D02*
X-47199047Y69116107D01*
X-47199047Y69116107D02*
X-47084762Y69116107D01*
X-47084762Y69116107D02*
X-47008571Y69078012D01*
X-47008571Y69078012D02*
X-46970476Y69039917D01*
X-46970476Y69039917D02*
X-46932381Y68963726D01*
X-46932381Y68963726D02*
X-46932381Y68773250D01*
X-46932381Y68773250D02*
X-46970476Y68697060D01*
X-46970476Y68697060D02*
X-47008571Y68658964D01*
X-47008571Y68658964D02*
X-47084762Y68620869D01*
X-47084762Y68620869D02*
X-47313333Y68620869D01*
X-47313333Y68620869D02*
X-47389524Y68658964D01*
X-47389524Y68658964D02*
X-47427619Y68697060D01*
D12*
G36*
X-40932980Y74746071D02*
G01*
X-40924689Y74737780D01*
X-40992995Y74737780D01*
X-41052605Y74767585D01*
X-41060896Y74775876D01*
X-40992590Y74775876D01*
X-40932980Y74746071D01*
G37*
G36*
X-40790125Y75507976D02*
G01*
X-40725946Y75443797D01*
X-40688031Y75292138D01*
X-40688031Y74983424D01*
X-40725947Y74831764D01*
X-40730889Y74826821D01*
X-40803034Y74898967D01*
X-40810704Y74905263D01*
X-40812434Y74907257D01*
X-40815440Y74909149D01*
X-40818187Y74911404D01*
X-40820629Y74912416D01*
X-40829024Y74917700D01*
X-40924262Y74965319D01*
X-40942570Y74972325D01*
X-40946154Y74972580D01*
X-40949474Y74973955D01*
X-40968983Y74975876D01*
X-41064221Y74975876D01*
X-41083730Y74973955D01*
X-41119778Y74959023D01*
X-41142833Y74935968D01*
X-41154697Y74983424D01*
X-41154697Y75292137D01*
X-41116782Y75443797D01*
X-41052603Y75507976D01*
X-40992995Y75537780D01*
X-40849733Y75537780D01*
X-40790125Y75507976D01*
G37*
G36*
X-41784907Y75026569D02*
G01*
X-41765455Y75007117D01*
X-41735650Y74947507D01*
X-41735650Y74851864D01*
X-41765455Y74792256D01*
X-41790124Y74767586D01*
X-41849733Y74737780D01*
X-42107078Y74737780D01*
X-42107078Y75061590D01*
X-41889972Y75061590D01*
X-41784907Y75026569D01*
G37*
G36*
X-41837743Y75507975D02*
G01*
X-41813074Y75483307D01*
X-41783269Y75423697D01*
X-41783269Y75375673D01*
X-41813074Y75316064D01*
X-41837743Y75291396D01*
X-41897352Y75261590D01*
X-42107078Y75261590D01*
X-42107078Y75537780D01*
X-41897352Y75537780D01*
X-41837743Y75507975D01*
G37*
G36*
X-36932981Y75507975D02*
G01*
X-36908312Y75483307D01*
X-36878507Y75423697D01*
X-36878507Y75232816D01*
X-36908312Y75173207D01*
X-36932981Y75148539D01*
X-36992590Y75118733D01*
X-37135852Y75118733D01*
X-37195462Y75148538D01*
X-37220130Y75173207D01*
X-37249935Y75232817D01*
X-37249935Y75423697D01*
X-37220130Y75483307D01*
X-37195462Y75507976D01*
X-37135852Y75537780D01*
X-36992590Y75537780D01*
X-36932981Y75507975D01*
G37*
G36*
X-35615015Y74332216D02*
G01*
X-42418189Y74332216D01*
X-42418189Y75637780D01*
X-42307078Y75637780D01*
X-42307078Y74637780D01*
X-42305157Y74618271D01*
X-42290225Y74582223D01*
X-42262635Y74554633D01*
X-42226587Y74539701D01*
X-42207078Y74537780D01*
X-41826126Y74537780D01*
X-41806617Y74539701D01*
X-41803297Y74541077D01*
X-41799713Y74541331D01*
X-41781405Y74548337D01*
X-41686167Y74595956D01*
X-41677772Y74601241D01*
X-41675330Y74602252D01*
X-41672583Y74604508D01*
X-41669577Y74606399D01*
X-41667847Y74608394D01*
X-41660177Y74614689D01*
X-41612558Y74662309D01*
X-41606266Y74669976D01*
X-41604269Y74671707D01*
X-41602376Y74674715D01*
X-41600121Y74677462D01*
X-41599110Y74679904D01*
X-41593826Y74688298D01*
X-41546207Y74783535D01*
X-41539201Y74801844D01*
X-41538947Y74805428D01*
X-41537571Y74808748D01*
X-41535650Y74828257D01*
X-41535650Y74971114D01*
X-41537571Y74990623D01*
X-41538947Y74993944D01*
X-41539201Y74997527D01*
X-41546207Y75015836D01*
X-41593826Y75111073D01*
X-41599112Y75119470D01*
X-41600122Y75121910D01*
X-41602376Y75124656D01*
X-41604269Y75127664D01*
X-41606267Y75129397D01*
X-41612559Y75137063D01*
X-41660177Y75184682D01*
X-41660966Y75185330D01*
X-41660178Y75186117D01*
X-41653886Y75193784D01*
X-41651888Y75195516D01*
X-41649995Y75198525D01*
X-41647741Y75201270D01*
X-41646731Y75203711D01*
X-41641445Y75212107D01*
X-41595275Y75304447D01*
X-41354697Y75304447D01*
X-41354697Y74971114D01*
X-41354362Y74967712D01*
X-41354579Y74966253D01*
X-41353500Y74958956D01*
X-41352776Y74951605D01*
X-41352212Y74950242D01*
X-41351711Y74946860D01*
X-41304092Y74756385D01*
X-41297497Y74737924D01*
X-41293072Y74731952D01*
X-41290226Y74725081D01*
X-41277789Y74709928D01*
X-41182551Y74614688D01*
X-41174883Y74608395D01*
X-41173152Y74606399D01*
X-41170145Y74604506D01*
X-41167398Y74602252D01*
X-41164958Y74601242D01*
X-41156561Y74595956D01*
X-41061324Y74548337D01*
X-41043015Y74541331D01*
X-41039432Y74541077D01*
X-41036111Y74539701D01*
X-41016602Y74537780D01*
X-40826126Y74537780D01*
X-40806617Y74539701D01*
X-40803297Y74541077D01*
X-40799713Y74541331D01*
X-40781405Y74548337D01*
X-40750634Y74563723D01*
X-40706361Y74519450D01*
X-40698695Y74513159D01*
X-40696962Y74511161D01*
X-40693951Y74509266D01*
X-40691207Y74507014D01*
X-40688770Y74506005D01*
X-40680371Y74500718D01*
X-40585134Y74453099D01*
X-40566825Y74446093D01*
X-40527905Y74443327D01*
X-40490889Y74455666D01*
X-40461412Y74481231D01*
X-40443963Y74516129D01*
X-40441198Y74555049D01*
X-40453536Y74592065D01*
X-40479101Y74621542D01*
X-40495691Y74631985D01*
X-40546299Y74657289D01*
X-40352776Y74657289D01*
X-40352776Y74618271D01*
X-40337844Y74582223D01*
X-40310254Y74554633D01*
X-40274206Y74539701D01*
X-40254697Y74537780D01*
X-39635650Y74537780D01*
X-39616141Y74539701D01*
X-39580093Y74554633D01*
X-39552503Y74582223D01*
X-39537571Y74618271D01*
X-39537571Y74657289D01*
X-39552503Y74693337D01*
X-39580093Y74720927D01*
X-39616141Y74735859D01*
X-39635650Y74737780D01*
X-40013275Y74737780D01*
X-39612558Y75138498D01*
X-39601529Y75151937D01*
X-39354230Y75151937D01*
X-39352776Y75147119D01*
X-39352776Y75142081D01*
X-39347180Y75128572D01*
X-39342959Y75114582D01*
X-39339772Y75110686D01*
X-39337844Y75106033D01*
X-39327508Y75095697D01*
X-39318252Y75084384D01*
X-39313815Y75082004D01*
X-39310254Y75078443D01*
X-39296749Y75072849D01*
X-39283868Y75065939D01*
X-39278859Y75065439D01*
X-39274206Y75063511D01*
X-39259585Y75063511D01*
X-39245044Y75062057D01*
X-39240225Y75063511D01*
X-39235188Y75063511D01*
X-39221679Y75069108D01*
X-39207689Y75073328D01*
X-39203793Y75076516D01*
X-39199140Y75078443D01*
X-39183986Y75090879D01*
X-39147843Y75127024D01*
X-39088233Y75156828D01*
X-38897352Y75156828D01*
X-38837743Y75127023D01*
X-38813074Y75102355D01*
X-38783269Y75042745D01*
X-38783269Y74851864D01*
X-38813074Y74792256D01*
X-38837743Y74767586D01*
X-38897352Y74737780D01*
X-39088233Y74737780D01*
X-39147843Y74767585D01*
X-39183986Y74803729D01*
X-39199139Y74816166D01*
X-39235187Y74831097D01*
X-39274205Y74831098D01*
X-39310254Y74816167D01*
X-39337844Y74788577D01*
X-39352775Y74752529D01*
X-39352776Y74713511D01*
X-39337845Y74677462D01*
X-39325408Y74662309D01*
X-39277790Y74614689D01*
X-39270122Y74608396D01*
X-39268390Y74606399D01*
X-39265382Y74604506D01*
X-39262636Y74602252D01*
X-39260196Y74601242D01*
X-39251799Y74595956D01*
X-39156562Y74548337D01*
X-39138253Y74541331D01*
X-39134670Y74541077D01*
X-39131349Y74539701D01*
X-39111840Y74537780D01*
X-38873745Y74537780D01*
X-38854236Y74539701D01*
X-38850916Y74541077D01*
X-38847332Y74541331D01*
X-38829024Y74548337D01*
X-38733786Y74595956D01*
X-38725391Y74601241D01*
X-38722949Y74602252D01*
X-38720202Y74604508D01*
X-38717196Y74606399D01*
X-38715466Y74608394D01*
X-38707796Y74614689D01*
X-38660177Y74662309D01*
X-38653885Y74669976D01*
X-38651888Y74671707D01*
X-38649995Y74674715D01*
X-38647740Y74677462D01*
X-38646729Y74679904D01*
X-38641445Y74688298D01*
X-38593826Y74783535D01*
X-38586820Y74801844D01*
X-38586566Y74805428D01*
X-38585190Y74808748D01*
X-38583269Y74828257D01*
X-38583269Y75066352D01*
X-38585190Y75085861D01*
X-38586566Y75089182D01*
X-38586820Y75092765D01*
X-38593826Y75111074D01*
X-38641445Y75206311D01*
X-38646731Y75214708D01*
X-38647741Y75217148D01*
X-38649995Y75219894D01*
X-38651888Y75222902D01*
X-38653886Y75224635D01*
X-38660178Y75232301D01*
X-38707796Y75279920D01*
X-38715467Y75286215D01*
X-38717196Y75288209D01*
X-38720204Y75290103D01*
X-38722950Y75292356D01*
X-38725390Y75293367D01*
X-38733786Y75298652D01*
X-38829024Y75346271D01*
X-38847332Y75353277D01*
X-38850916Y75353532D01*
X-38854236Y75354907D01*
X-38873745Y75356828D01*
X-39111840Y75356828D01*
X-39131349Y75354907D01*
X-39134670Y75353532D01*
X-39135007Y75353508D01*
X-39116579Y75537780D01*
X-38730888Y75537780D01*
X-38711379Y75539701D01*
X-38675331Y75554633D01*
X-38647741Y75582223D01*
X-38632809Y75618271D01*
X-38632809Y75657289D01*
X-38448014Y75657289D01*
X-38448014Y75618271D01*
X-38433082Y75582223D01*
X-38405492Y75554633D01*
X-38369444Y75539701D01*
X-38349935Y75537780D01*
X-37834923Y75537780D01*
X-38203755Y74677172D01*
X-38209674Y74658484D01*
X-38210149Y74619468D01*
X-38195658Y74583241D01*
X-38168407Y74555316D01*
X-38132544Y74539946D01*
X-38093528Y74539471D01*
X-38057301Y74553962D01*
X-38029376Y74581213D01*
X-38019925Y74598388D01*
X-37656105Y75447304D01*
X-37449935Y75447304D01*
X-37449935Y75209209D01*
X-37448014Y75189700D01*
X-37446639Y75186380D01*
X-37446384Y75182796D01*
X-37439378Y75164488D01*
X-37391759Y75069250D01*
X-37386474Y75060854D01*
X-37385463Y75058414D01*
X-37383210Y75055668D01*
X-37381316Y75052660D01*
X-37379322Y75050931D01*
X-37373027Y75043260D01*
X-37325408Y74995642D01*
X-37317742Y74989350D01*
X-37316009Y74987352D01*
X-37313001Y74985459D01*
X-37310255Y74983205D01*
X-37307815Y74982195D01*
X-37299418Y74976909D01*
X-37204181Y74929290D01*
X-37185872Y74922284D01*
X-37182289Y74922030D01*
X-37178968Y74920654D01*
X-37159459Y74918733D01*
X-36968983Y74918733D01*
X-36949474Y74920654D01*
X-36946154Y74922030D01*
X-36942570Y74922284D01*
X-36924262Y74929290D01*
X-36914649Y74934097D01*
X-36918939Y74916935D01*
X-36999076Y74796730D01*
X-37028219Y74767586D01*
X-37087828Y74737780D01*
X-37254697Y74737780D01*
X-37274206Y74735859D01*
X-37310254Y74720927D01*
X-37337844Y74693337D01*
X-37352776Y74657289D01*
X-37352776Y74618271D01*
X-37337844Y74582223D01*
X-37310254Y74554633D01*
X-37274206Y74539701D01*
X-37254697Y74537780D01*
X-37064221Y74537780D01*
X-37044712Y74539701D01*
X-37041392Y74541077D01*
X-37037808Y74541331D01*
X-37019500Y74548337D01*
X-36924262Y74595956D01*
X-36915867Y74601241D01*
X-36913425Y74602252D01*
X-36910678Y74604508D01*
X-36907672Y74606399D01*
X-36905942Y74608394D01*
X-36898272Y74614689D01*
X-36855673Y74657289D01*
X-36543252Y74657289D01*
X-36543252Y74618271D01*
X-36528320Y74582223D01*
X-36500730Y74554633D01*
X-36464682Y74539701D01*
X-36445173Y74537780D01*
X-35826126Y74537780D01*
X-35806617Y74539701D01*
X-35770569Y74554633D01*
X-35742979Y74582223D01*
X-35728047Y74618271D01*
X-35728047Y74657289D01*
X-35742979Y74693337D01*
X-35770569Y74720927D01*
X-35806617Y74735859D01*
X-35826126Y74737780D01*
X-36203751Y74737780D01*
X-35803034Y75138498D01*
X-35790598Y75153652D01*
X-35789224Y75156971D01*
X-35786868Y75159686D01*
X-35778877Y75177586D01*
X-35731258Y75320443D01*
X-35729059Y75330116D01*
X-35728047Y75332557D01*
X-35727699Y75336095D01*
X-35726911Y75339558D01*
X-35727099Y75342193D01*
X-35726126Y75352066D01*
X-35726126Y75447304D01*
X-35728047Y75466813D01*
X-35729423Y75470134D01*
X-35729677Y75473717D01*
X-35736683Y75492026D01*
X-35784302Y75587263D01*
X-35789588Y75595660D01*
X-35790598Y75598100D01*
X-35792852Y75600846D01*
X-35794745Y75603854D01*
X-35796743Y75605587D01*
X-35803035Y75613253D01*
X-35850653Y75660872D01*
X-35858324Y75667167D01*
X-35860053Y75669161D01*
X-35863061Y75671055D01*
X-35865807Y75673308D01*
X-35868247Y75674319D01*
X-35876643Y75679604D01*
X-35971881Y75727223D01*
X-35990189Y75734229D01*
X-35993773Y75734484D01*
X-35997093Y75735859D01*
X-36016602Y75737780D01*
X-36254697Y75737780D01*
X-36274206Y75735859D01*
X-36277527Y75734484D01*
X-36281110Y75734229D01*
X-36299419Y75727223D01*
X-36394656Y75679604D01*
X-36403053Y75674319D01*
X-36405493Y75673308D01*
X-36408239Y75671055D01*
X-36411247Y75669161D01*
X-36412980Y75667164D01*
X-36420646Y75660871D01*
X-36468265Y75613253D01*
X-36480701Y75598099D01*
X-36495633Y75562051D01*
X-36495633Y75523033D01*
X-36480701Y75486985D01*
X-36453111Y75459395D01*
X-36417063Y75444463D01*
X-36378045Y75444463D01*
X-36341997Y75459395D01*
X-36326843Y75471831D01*
X-36290700Y75507976D01*
X-36231090Y75537780D01*
X-36040209Y75537780D01*
X-35980600Y75507975D01*
X-35955931Y75483307D01*
X-35926126Y75423697D01*
X-35926126Y75368293D01*
X-35961148Y75263229D01*
X-36515884Y74708491D01*
X-36528320Y74693337D01*
X-36543252Y74657289D01*
X-36855673Y74657289D01*
X-36850653Y74662309D01*
X-36850611Y74662362D01*
X-36850579Y74662382D01*
X-36844440Y74669880D01*
X-36838216Y74677462D01*
X-36838202Y74677498D01*
X-36838159Y74677549D01*
X-36742921Y74820406D01*
X-36737179Y74831176D01*
X-36735707Y74833162D01*
X-36734869Y74835508D01*
X-36733698Y74837704D01*
X-36733219Y74840128D01*
X-36729112Y74851622D01*
X-36681493Y75042098D01*
X-36680993Y75045480D01*
X-36680428Y75046843D01*
X-36679705Y75054194D01*
X-36678625Y75061491D01*
X-36678843Y75062950D01*
X-36678507Y75066352D01*
X-36678507Y75447304D01*
X-36680428Y75466813D01*
X-36681804Y75470134D01*
X-36682058Y75473717D01*
X-36689064Y75492026D01*
X-36736683Y75587263D01*
X-36741969Y75595660D01*
X-36742979Y75598100D01*
X-36745233Y75600846D01*
X-36747126Y75603854D01*
X-36749124Y75605587D01*
X-36755416Y75613253D01*
X-36803034Y75660872D01*
X-36810705Y75667167D01*
X-36812434Y75669161D01*
X-36815442Y75671055D01*
X-36818188Y75673308D01*
X-36820628Y75674319D01*
X-36829024Y75679604D01*
X-36924262Y75727223D01*
X-36942570Y75734229D01*
X-36946154Y75734484D01*
X-36949474Y75735859D01*
X-36968983Y75737780D01*
X-37159459Y75737780D01*
X-37178968Y75735859D01*
X-37182289Y75734484D01*
X-37185872Y75734229D01*
X-37204181Y75727223D01*
X-37299418Y75679604D01*
X-37307815Y75674319D01*
X-37310255Y75673308D01*
X-37313001Y75671055D01*
X-37316009Y75669161D01*
X-37317742Y75667164D01*
X-37325408Y75660871D01*
X-37373027Y75613253D01*
X-37379322Y75605583D01*
X-37381316Y75603853D01*
X-37383210Y75600846D01*
X-37385463Y75598099D01*
X-37386474Y75595660D01*
X-37391759Y75587263D01*
X-37439378Y75492025D01*
X-37446384Y75473717D01*
X-37446639Y75470134D01*
X-37448014Y75466813D01*
X-37449935Y75447304D01*
X-37656105Y75447304D01*
X-37591355Y75598388D01*
X-37585435Y75617076D01*
X-37585428Y75617698D01*
X-37585190Y75618271D01*
X-37585190Y75637200D01*
X-37584960Y75656091D01*
X-37585190Y75656667D01*
X-37585190Y75657289D01*
X-37592444Y75674800D01*
X-37599451Y75692319D01*
X-37599885Y75692763D01*
X-37600122Y75693337D01*
X-37613502Y75706717D01*
X-37626702Y75720243D01*
X-37627273Y75720488D01*
X-37627712Y75720927D01*
X-37645229Y75728183D01*
X-37662566Y75735613D01*
X-37663185Y75735621D01*
X-37663760Y75735859D01*
X-37683269Y75737780D01*
X-38349935Y75737780D01*
X-38369444Y75735859D01*
X-38405492Y75720927D01*
X-38433082Y75693337D01*
X-38448014Y75657289D01*
X-38632809Y75657289D01*
X-38647741Y75693337D01*
X-38675331Y75720927D01*
X-38711379Y75735859D01*
X-38730888Y75737780D01*
X-39207078Y75737780D01*
X-39214295Y75737070D01*
X-39216731Y75737313D01*
X-39219110Y75736596D01*
X-39226587Y75735859D01*
X-39240097Y75730263D01*
X-39254086Y75726042D01*
X-39257983Y75722855D01*
X-39262635Y75720927D01*
X-39272972Y75710591D01*
X-39284284Y75701335D01*
X-39286665Y75696898D01*
X-39290225Y75693337D01*
X-39295820Y75679832D01*
X-39302729Y75666951D01*
X-39304206Y75659587D01*
X-39305157Y75657289D01*
X-39305157Y75654839D01*
X-39306582Y75647730D01*
X-39354201Y75171540D01*
X-39354230Y75151937D01*
X-39601529Y75151937D01*
X-39600122Y75153652D01*
X-39598748Y75156971D01*
X-39596392Y75159686D01*
X-39588401Y75177586D01*
X-39540782Y75320443D01*
X-39538583Y75330116D01*
X-39537571Y75332557D01*
X-39537223Y75336095D01*
X-39536435Y75339558D01*
X-39536623Y75342193D01*
X-39535650Y75352066D01*
X-39535650Y75447304D01*
X-39537571Y75466813D01*
X-39538947Y75470134D01*
X-39539201Y75473717D01*
X-39546207Y75492026D01*
X-39593826Y75587263D01*
X-39599112Y75595660D01*
X-39600122Y75598100D01*
X-39602376Y75600846D01*
X-39604269Y75603854D01*
X-39606267Y75605587D01*
X-39612559Y75613253D01*
X-39660177Y75660872D01*
X-39667848Y75667167D01*
X-39669577Y75669161D01*
X-39672585Y75671055D01*
X-39675331Y75673308D01*
X-39677771Y75674319D01*
X-39686167Y75679604D01*
X-39781405Y75727223D01*
X-39799713Y75734229D01*
X-39803297Y75734484D01*
X-39806617Y75735859D01*
X-39826126Y75737780D01*
X-40064221Y75737780D01*
X-40083730Y75735859D01*
X-40087051Y75734484D01*
X-40090634Y75734229D01*
X-40108943Y75727223D01*
X-40204180Y75679604D01*
X-40212577Y75674319D01*
X-40215017Y75673308D01*
X-40217763Y75671055D01*
X-40220771Y75669161D01*
X-40222504Y75667164D01*
X-40230170Y75660871D01*
X-40277789Y75613253D01*
X-40290225Y75598099D01*
X-40305157Y75562051D01*
X-40305157Y75523033D01*
X-40290225Y75486985D01*
X-40262635Y75459395D01*
X-40226587Y75444463D01*
X-40187569Y75444463D01*
X-40151521Y75459395D01*
X-40136367Y75471831D01*
X-40100224Y75507976D01*
X-40040614Y75537780D01*
X-39849733Y75537780D01*
X-39790124Y75507975D01*
X-39765455Y75483307D01*
X-39735650Y75423697D01*
X-39735650Y75368293D01*
X-39770672Y75263229D01*
X-40325408Y74708491D01*
X-40337844Y74693337D01*
X-40352776Y74657289D01*
X-40546299Y74657289D01*
X-40576413Y74672346D01*
X-40589467Y74685400D01*
X-40564939Y74709928D01*
X-40552502Y74725081D01*
X-40549657Y74731952D01*
X-40545231Y74737924D01*
X-40538636Y74756384D01*
X-40491017Y74946860D01*
X-40490517Y74950242D01*
X-40489952Y74951605D01*
X-40489229Y74958956D01*
X-40488149Y74966253D01*
X-40488367Y74967712D01*
X-40488031Y74971114D01*
X-40488031Y75304447D01*
X-40488367Y75307850D01*
X-40488149Y75309308D01*
X-40489229Y75316606D01*
X-40489952Y75323956D01*
X-40490517Y75325320D01*
X-40491017Y75328701D01*
X-40538636Y75519177D01*
X-40545231Y75537637D01*
X-40549658Y75543612D01*
X-40552503Y75550480D01*
X-40564939Y75565634D01*
X-40660177Y75660872D01*
X-40667848Y75667167D01*
X-40669577Y75669161D01*
X-40672585Y75671055D01*
X-40675331Y75673308D01*
X-40677771Y75674319D01*
X-40686167Y75679604D01*
X-40781405Y75727223D01*
X-40799713Y75734229D01*
X-40803297Y75734484D01*
X-40806617Y75735859D01*
X-40826126Y75737780D01*
X-41016602Y75737780D01*
X-41036111Y75735859D01*
X-41039432Y75734484D01*
X-41043015Y75734229D01*
X-41061324Y75727223D01*
X-41156561Y75679604D01*
X-41164960Y75674318D01*
X-41167397Y75673308D01*
X-41170141Y75671057D01*
X-41173152Y75669161D01*
X-41174885Y75667164D01*
X-41182551Y75660872D01*
X-41277789Y75565634D01*
X-41290225Y75550480D01*
X-41293071Y75543612D01*
X-41297497Y75537637D01*
X-41304092Y75519176D01*
X-41351711Y75328701D01*
X-41352212Y75325320D01*
X-41352776Y75323956D01*
X-41353500Y75316606D01*
X-41354579Y75309308D01*
X-41354362Y75307850D01*
X-41354697Y75304447D01*
X-41595275Y75304447D01*
X-41593826Y75307344D01*
X-41586820Y75325653D01*
X-41586566Y75329237D01*
X-41585190Y75332557D01*
X-41583269Y75352066D01*
X-41583269Y75447304D01*
X-41585190Y75466813D01*
X-41586566Y75470134D01*
X-41586820Y75473717D01*
X-41593826Y75492026D01*
X-41641445Y75587263D01*
X-41646731Y75595660D01*
X-41647741Y75598100D01*
X-41649995Y75600846D01*
X-41651888Y75603854D01*
X-41653886Y75605587D01*
X-41660178Y75613253D01*
X-41707796Y75660872D01*
X-41715467Y75667167D01*
X-41717196Y75669161D01*
X-41720204Y75671055D01*
X-41722950Y75673308D01*
X-41725390Y75674319D01*
X-41733786Y75679604D01*
X-41829024Y75727223D01*
X-41847332Y75734229D01*
X-41850916Y75734484D01*
X-41854236Y75735859D01*
X-41873745Y75737780D01*
X-42207078Y75737780D01*
X-42226587Y75735859D01*
X-42262635Y75720927D01*
X-42290225Y75693337D01*
X-42305157Y75657289D01*
X-42307078Y75637780D01*
X-42418189Y75637780D01*
X-42418189Y75848891D01*
X-35615015Y75848891D01*
X-35615015Y74332216D01*
G37*
D10*
X-52696667Y82830178D02*
X-53172857Y82830178D01*
X-53172857Y82830178D02*
X-53172857Y83830178D01*
X-51839524Y82830178D02*
X-52410952Y82830178D01*
X-52125238Y82830178D02*
X-52125238Y83830178D01*
X-52125238Y83830178D02*
X-52220476Y83687321D01*
X-52220476Y83687321D02*
X-52315714Y83592083D01*
X-52315714Y83592083D02*
X-52410952Y83544464D01*
X-45630193Y65172700D02*
X-45392098Y65172700D01*
X-45487336Y64934605D02*
X-45392098Y65172700D01*
X-45392098Y65172700D02*
X-45487336Y65410795D01*
X-45201622Y65029843D02*
X-45392098Y65172700D01*
X-45392098Y65172700D02*
X-45201622Y65315557D01*
X-72459524Y63337705D02*
X-72002381Y63337705D01*
X-72230953Y62537705D02*
X-72230953Y63337705D01*
X-71735714Y62537705D02*
X-71735714Y63337705D01*
X-71735714Y63337705D02*
X-71430952Y63337705D01*
X-71430952Y63337705D02*
X-71354762Y63299610D01*
X-71354762Y63299610D02*
X-71316667Y63261515D01*
X-71316667Y63261515D02*
X-71278571Y63185324D01*
X-71278571Y63185324D02*
X-71278571Y63071039D01*
X-71278571Y63071039D02*
X-71316667Y62994848D01*
X-71316667Y62994848D02*
X-71354762Y62956753D01*
X-71354762Y62956753D02*
X-71430952Y62918658D01*
X-71430952Y62918658D02*
X-71735714Y62918658D01*
X-70516667Y62537705D02*
X-70973810Y62537705D01*
X-70745238Y62537705D02*
X-70745238Y63337705D01*
X-70745238Y63337705D02*
X-70821429Y63223420D01*
X-70821429Y63223420D02*
X-70897619Y63147229D01*
X-70897619Y63147229D02*
X-70973810Y63109134D01*
X-6161905Y65045181D02*
X-6161905Y64235658D01*
X-6161905Y64235658D02*
X-6114286Y64140420D01*
X-6114286Y64140420D02*
X-6066667Y64092800D01*
X-6066667Y64092800D02*
X-5971429Y64045181D01*
X-5971429Y64045181D02*
X-5780953Y64045181D01*
X-5780953Y64045181D02*
X-5685715Y64092800D01*
X-5685715Y64092800D02*
X-5638096Y64140420D01*
X-5638096Y64140420D02*
X-5590477Y64235658D01*
X-5590477Y64235658D02*
X-5590477Y65045181D01*
X-5209524Y65045181D02*
X-4542858Y65045181D01*
X-4542858Y65045181D02*
X-4971429Y64045181D01*
X-10833333Y76492800D02*
X-10690476Y76445181D01*
X-10690476Y76445181D02*
X-10452381Y76445181D01*
X-10452381Y76445181D02*
X-10357143Y76492800D01*
X-10357143Y76492800D02*
X-10309524Y76540420D01*
X-10309524Y76540420D02*
X-10261905Y76635658D01*
X-10261905Y76635658D02*
X-10261905Y76730896D01*
X-10261905Y76730896D02*
X-10309524Y76826134D01*
X-10309524Y76826134D02*
X-10357143Y76873753D01*
X-10357143Y76873753D02*
X-10452381Y76921372D01*
X-10452381Y76921372D02*
X-10642857Y76968991D01*
X-10642857Y76968991D02*
X-10738095Y77016610D01*
X-10738095Y77016610D02*
X-10785714Y77064229D01*
X-10785714Y77064229D02*
X-10833333Y77159467D01*
X-10833333Y77159467D02*
X-10833333Y77254705D01*
X-10833333Y77254705D02*
X-10785714Y77349943D01*
X-10785714Y77349943D02*
X-10738095Y77397562D01*
X-10738095Y77397562D02*
X-10642857Y77445181D01*
X-10642857Y77445181D02*
X-10404762Y77445181D01*
X-10404762Y77445181D02*
X-10261905Y77397562D01*
X-9928571Y77445181D02*
X-9690476Y76445181D01*
X-9690476Y76445181D02*
X-9500000Y77159467D01*
X-9500000Y77159467D02*
X-9309524Y76445181D01*
X-9309524Y76445181D02*
X-9071428Y77445181D01*
X-8166667Y76445181D02*
X-8738095Y76445181D01*
X-8452381Y76445181D02*
X-8452381Y77445181D01*
X-8452381Y77445181D02*
X-8547619Y77302324D01*
X-8547619Y77302324D02*
X-8642857Y77207086D01*
X-8642857Y77207086D02*
X-8738095Y77159467D01*
X74035Y81296589D02*
X-925965Y81296589D01*
X-925965Y81296589D02*
X-925965Y81534684D01*
X-925965Y81534684D02*
X-878346Y81677541D01*
X-878346Y81677541D02*
X-783108Y81772779D01*
X-783108Y81772779D02*
X-687870Y81820398D01*
X-687870Y81820398D02*
X-497394Y81868017D01*
X-497394Y81868017D02*
X-354537Y81868017D01*
X-354537Y81868017D02*
X-164061Y81820398D01*
X-164061Y81820398D02*
X-68823Y81772779D01*
X-68823Y81772779D02*
X26416Y81677541D01*
X26416Y81677541D02*
X74035Y81534684D01*
X74035Y81534684D02*
X74035Y81296589D01*
X-592632Y82725160D02*
X74035Y82725160D01*
X-973584Y82487065D02*
X-259299Y82248970D01*
X-259299Y82248970D02*
X-259299Y82868017D01*
X-3014286Y68278896D02*
X-3052382Y68240800D01*
X-3052382Y68240800D02*
X-3166667Y68202705D01*
X-3166667Y68202705D02*
X-3242858Y68202705D01*
X-3242858Y68202705D02*
X-3357144Y68240800D01*
X-3357144Y68240800D02*
X-3433334Y68316991D01*
X-3433334Y68316991D02*
X-3471429Y68393181D01*
X-3471429Y68393181D02*
X-3509525Y68545562D01*
X-3509525Y68545562D02*
X-3509525Y68659848D01*
X-3509525Y68659848D02*
X-3471429Y68812229D01*
X-3471429Y68812229D02*
X-3433334Y68888420D01*
X-3433334Y68888420D02*
X-3357144Y68964610D01*
X-3357144Y68964610D02*
X-3242858Y69002705D01*
X-3242858Y69002705D02*
X-3166667Y69002705D01*
X-3166667Y69002705D02*
X-3052382Y68964610D01*
X-3052382Y68964610D02*
X-3014286Y68926515D01*
X-2290477Y69002705D02*
X-2671429Y69002705D01*
X-2671429Y69002705D02*
X-2709525Y68621753D01*
X-2709525Y68621753D02*
X-2671429Y68659848D01*
X-2671429Y68659848D02*
X-2595239Y68697943D01*
X-2595239Y68697943D02*
X-2404763Y68697943D01*
X-2404763Y68697943D02*
X-2328572Y68659848D01*
X-2328572Y68659848D02*
X-2290477Y68621753D01*
X-2290477Y68621753D02*
X-2252382Y68545562D01*
X-2252382Y68545562D02*
X-2252382Y68355086D01*
X-2252382Y68355086D02*
X-2290477Y68278896D01*
X-2290477Y68278896D02*
X-2328572Y68240800D01*
X-2328572Y68240800D02*
X-2404763Y68202705D01*
X-2404763Y68202705D02*
X-2595239Y68202705D01*
X-2595239Y68202705D02*
X-2671429Y68240800D01*
X-2671429Y68240800D02*
X-2709525Y68278896D01*
X-1528572Y69002705D02*
X-1909524Y69002705D01*
X-1909524Y69002705D02*
X-1947620Y68621753D01*
X-1947620Y68621753D02*
X-1909524Y68659848D01*
X-1909524Y68659848D02*
X-1833334Y68697943D01*
X-1833334Y68697943D02*
X-1642858Y68697943D01*
X-1642858Y68697943D02*
X-1566667Y68659848D01*
X-1566667Y68659848D02*
X-1528572Y68621753D01*
X-1528572Y68621753D02*
X-1490477Y68545562D01*
X-1490477Y68545562D02*
X-1490477Y68355086D01*
X-1490477Y68355086D02*
X-1528572Y68278896D01*
X-1528572Y68278896D02*
X-1566667Y68240800D01*
X-1566667Y68240800D02*
X-1642858Y68202705D01*
X-1642858Y68202705D02*
X-1833334Y68202705D01*
X-1833334Y68202705D02*
X-1909524Y68240800D01*
X-1909524Y68240800D02*
X-1947620Y68278896D01*
X-26966667Y81645181D02*
X-27442857Y81645181D01*
X-27442857Y81645181D02*
X-27442857Y82645181D01*
X-26204762Y82311848D02*
X-26204762Y81645181D01*
X-26442857Y82692800D02*
X-26680952Y81978515D01*
X-26680952Y81978515D02*
X-26061905Y81978515D01*
X-29154820Y75900000D02*
X-29392915Y75900000D01*
X-29297677Y76138095D02*
X-29392915Y75900000D01*
X-29392915Y75900000D02*
X-29297677Y75661905D01*
X-29583391Y76042857D02*
X-29392915Y75900000D01*
X-29392915Y75900000D02*
X-29583391Y75757143D01*
X-67809524Y83685705D02*
X-67352381Y83685705D01*
X-67580953Y82885705D02*
X-67580953Y83685705D01*
X-67085714Y82885705D02*
X-67085714Y83685705D01*
X-67085714Y83685705D02*
X-66780952Y83685705D01*
X-66780952Y83685705D02*
X-66704762Y83647610D01*
X-66704762Y83647610D02*
X-66666667Y83609515D01*
X-66666667Y83609515D02*
X-66628571Y83533324D01*
X-66628571Y83533324D02*
X-66628571Y83419039D01*
X-66628571Y83419039D02*
X-66666667Y83342848D01*
X-66666667Y83342848D02*
X-66704762Y83304753D01*
X-66704762Y83304753D02*
X-66780952Y83266658D01*
X-66780952Y83266658D02*
X-67085714Y83266658D01*
X-66323810Y83609515D02*
X-66285714Y83647610D01*
X-66285714Y83647610D02*
X-66209524Y83685705D01*
X-66209524Y83685705D02*
X-66019048Y83685705D01*
X-66019048Y83685705D02*
X-65942857Y83647610D01*
X-65942857Y83647610D02*
X-65904762Y83609515D01*
X-65904762Y83609515D02*
X-65866667Y83533324D01*
X-65866667Y83533324D02*
X-65866667Y83457134D01*
X-65866667Y83457134D02*
X-65904762Y83342848D01*
X-65904762Y83342848D02*
X-66361905Y82885705D01*
X-66361905Y82885705D02*
X-65866667Y82885705D01*
X-60595239Y68049943D02*
X-60690477Y68097562D01*
X-60690477Y68097562D02*
X-60785715Y68192800D01*
X-60785715Y68192800D02*
X-60928572Y68335658D01*
X-60928572Y68335658D02*
X-61023810Y68383277D01*
X-61023810Y68383277D02*
X-61119048Y68383277D01*
X-61071429Y68145181D02*
X-61166667Y68192800D01*
X-61166667Y68192800D02*
X-61261905Y68288039D01*
X-61261905Y68288039D02*
X-61309524Y68478515D01*
X-61309524Y68478515D02*
X-61309524Y68811848D01*
X-61309524Y68811848D02*
X-61261905Y69002324D01*
X-61261905Y69002324D02*
X-61166667Y69097562D01*
X-61166667Y69097562D02*
X-61071429Y69145181D01*
X-61071429Y69145181D02*
X-60880953Y69145181D01*
X-60880953Y69145181D02*
X-60785715Y69097562D01*
X-60785715Y69097562D02*
X-60690477Y69002324D01*
X-60690477Y69002324D02*
X-60642858Y68811848D01*
X-60642858Y68811848D02*
X-60642858Y68478515D01*
X-60642858Y68478515D02*
X-60690477Y68288039D01*
X-60690477Y68288039D02*
X-60785715Y68192800D01*
X-60785715Y68192800D02*
X-60880953Y68145181D01*
X-60880953Y68145181D02*
X-61071429Y68145181D01*
X-59690477Y68145181D02*
X-60261905Y68145181D01*
X-59976191Y68145181D02*
X-59976191Y69145181D01*
X-59976191Y69145181D02*
X-60071429Y69002324D01*
X-60071429Y69002324D02*
X-60166667Y68907086D01*
X-60166667Y68907086D02*
X-60261905Y68859467D01*
X-59190477Y67166277D02*
X-58809524Y67166277D01*
X-59266667Y66937705D02*
X-59000000Y67737705D01*
X-59000000Y67737705D02*
X-58733334Y66937705D01*
X-61628572Y64577576D02*
X-61590476Y64615671D01*
X-61590476Y64615671D02*
X-61514286Y64653766D01*
X-61514286Y64653766D02*
X-61323810Y64653766D01*
X-61323810Y64653766D02*
X-61247619Y64615671D01*
X-61247619Y64615671D02*
X-61209524Y64577576D01*
X-61209524Y64577576D02*
X-61171429Y64501385D01*
X-61171429Y64501385D02*
X-61171429Y64425195D01*
X-61171429Y64425195D02*
X-61209524Y64310909D01*
X-61209524Y64310909D02*
X-61666667Y63853766D01*
X-61666667Y63853766D02*
X-61171429Y63853766D01*
X-59571429Y66937705D02*
X-60028572Y66937705D01*
X-59800000Y66937705D02*
X-59800000Y67737705D01*
X-59800000Y67737705D02*
X-59876191Y67623420D01*
X-59876191Y67623420D02*
X-59952381Y67547229D01*
X-59952381Y67547229D02*
X-60028572Y67509134D01*
X-27542858Y68699514D02*
X-27876191Y69175705D01*
X-28114286Y68699514D02*
X-28114286Y69699514D01*
X-28114286Y69699514D02*
X-27733334Y69699514D01*
X-27733334Y69699514D02*
X-27638096Y69651895D01*
X-27638096Y69651895D02*
X-27590477Y69604276D01*
X-27590477Y69604276D02*
X-27542858Y69509038D01*
X-27542858Y69509038D02*
X-27542858Y69366181D01*
X-27542858Y69366181D02*
X-27590477Y69270943D01*
X-27590477Y69270943D02*
X-27638096Y69223324D01*
X-27638096Y69223324D02*
X-27733334Y69175705D01*
X-27733334Y69175705D02*
X-28114286Y69175705D01*
X-27161905Y69604276D02*
X-27114286Y69651895D01*
X-27114286Y69651895D02*
X-27019048Y69699514D01*
X-27019048Y69699514D02*
X-26780953Y69699514D01*
X-26780953Y69699514D02*
X-26685715Y69651895D01*
X-26685715Y69651895D02*
X-26638096Y69604276D01*
X-26638096Y69604276D02*
X-26590477Y69509038D01*
X-26590477Y69509038D02*
X-26590477Y69413800D01*
X-26590477Y69413800D02*
X-26638096Y69270943D01*
X-26638096Y69270943D02*
X-27209524Y68699514D01*
X-27209524Y68699514D02*
X-26590477Y68699514D01*
X-26019048Y69270943D02*
X-26114286Y69318562D01*
X-26114286Y69318562D02*
X-26161905Y69366181D01*
X-26161905Y69366181D02*
X-26209524Y69461419D01*
X-26209524Y69461419D02*
X-26209524Y69509038D01*
X-26209524Y69509038D02*
X-26161905Y69604276D01*
X-26161905Y69604276D02*
X-26114286Y69651895D01*
X-26114286Y69651895D02*
X-26019048Y69699514D01*
X-26019048Y69699514D02*
X-25828572Y69699514D01*
X-25828572Y69699514D02*
X-25733334Y69651895D01*
X-25733334Y69651895D02*
X-25685715Y69604276D01*
X-25685715Y69604276D02*
X-25638096Y69509038D01*
X-25638096Y69509038D02*
X-25638096Y69461419D01*
X-25638096Y69461419D02*
X-25685715Y69366181D01*
X-25685715Y69366181D02*
X-25733334Y69318562D01*
X-25733334Y69318562D02*
X-25828572Y69270943D01*
X-25828572Y69270943D02*
X-26019048Y69270943D01*
X-26019048Y69270943D02*
X-26114286Y69223324D01*
X-26114286Y69223324D02*
X-26161905Y69175705D01*
X-26161905Y69175705D02*
X-26209524Y69080467D01*
X-26209524Y69080467D02*
X-26209524Y68889991D01*
X-26209524Y68889991D02*
X-26161905Y68794753D01*
X-26161905Y68794753D02*
X-26114286Y68747133D01*
X-26114286Y68747133D02*
X-26019048Y68699514D01*
X-26019048Y68699514D02*
X-25828572Y68699514D01*
X-25828572Y68699514D02*
X-25733334Y68747133D01*
X-25733334Y68747133D02*
X-25685715Y68794753D01*
X-25685715Y68794753D02*
X-25638096Y68889991D01*
X-25638096Y68889991D02*
X-25638096Y69080467D01*
X-25638096Y69080467D02*
X-25685715Y69175705D01*
X-25685715Y69175705D02*
X-25733334Y69223324D01*
X-25733334Y69223324D02*
X-25828572Y69270943D01*
D13*
G04 #@! TO.C,R29*
X-11322258Y63562500D02*
X-10847742Y63562500D01*
X-11322258Y62517500D02*
X-10847742Y62517500D01*
G04 #@! TO.C,R2*
X-68004007Y62187872D02*
X-67696725Y62187872D01*
X-68004007Y61427872D02*
X-67696725Y61427872D01*
G04 #@! TO.C,C23*
X-40115002Y77724391D02*
X-40115002Y78246897D01*
X-38645002Y77724391D02*
X-38645002Y78246897D01*
G04 #@! TO.C,R7*
X-43537742Y67522500D02*
X-44012258Y67522500D01*
X-43537742Y66477500D02*
X-44012258Y66477500D01*
G04 #@! TO.C,R35*
X-1599230Y67510000D02*
X2754898Y67510000D01*
X-1599230Y64090000D02*
X2754898Y64090000D01*
G04 #@! TO.C,C43*
X-14560000Y72627836D02*
X-14560000Y72412164D01*
X-13840000Y72627836D02*
X-13840000Y72412164D01*
G04 #@! TO.C,C2*
X-55010000Y61515581D02*
X-55010000Y61234419D01*
X-53990000Y61515581D02*
X-53990000Y61234419D01*
G04 #@! TO.C,C8*
X-62560000Y61427836D02*
X-62560000Y61212164D01*
X-61840000Y61427836D02*
X-61840000Y61212164D01*
G04 #@! TO.C,R34*
X1426359Y61165216D02*
X1733641Y61165216D01*
X1426359Y60405216D02*
X1733641Y60405216D01*
G04 #@! TO.C,R30*
X-37952518Y66604082D02*
X-37952518Y70958210D01*
X-34532518Y66604082D02*
X-34532518Y70958210D01*
G04 #@! TO.C,C20*
X-45892164Y75344351D02*
X-46107836Y75344351D01*
X-45892164Y74624351D02*
X-46107836Y74624351D01*
G04 #@! TO.C,R13*
X-26818032Y61921359D02*
X-26818032Y62228641D01*
X-26058032Y61921359D02*
X-26058032Y62228641D01*
G04 #@! TO.C,R32*
X-16876532Y67510000D02*
X-12522404Y67510000D01*
X-16876532Y64090000D02*
X-12522404Y64090000D01*
G04 #@! TO.C,J5*
X-15250000Y84344885D02*
X-13870000Y84344885D01*
X-15250000Y82964885D02*
X-15250000Y84344885D01*
X-15250000Y81694885D02*
X-15250000Y73964885D01*
X-15250000Y81694885D02*
X-12490000Y81694885D01*
X-15250000Y73964885D02*
X-12490000Y73964885D01*
X-12490000Y81694885D02*
X-12490000Y73964885D01*
G04 #@! TO.C,C61*
X-65270000Y83759419D02*
X-65270000Y84040581D01*
X-64250000Y83759419D02*
X-64250000Y84040581D01*
G04 #@! TO.C,C49*
X-22979496Y71160000D02*
X-22763824Y71160000D01*
X-22979496Y70440000D02*
X-22763824Y70440000D01*
G04 #@! TO.C,C47*
X-20006934Y66779332D02*
X-20288096Y66779332D01*
X-20006934Y65759332D02*
X-20288096Y65759332D01*
D14*
G04 #@! TO.C,U12*
X-9441968Y64530000D02*
X-9441968Y64700000D01*
X-9431968Y67140000D02*
X-9201968Y67140000D01*
X-9431968Y66860000D02*
X-9431968Y67140000D01*
X-9241968Y64530000D02*
X-9441968Y64530000D01*
X-7021968Y67140000D02*
X-6831968Y67140000D01*
X-6831968Y67140000D02*
X-6831968Y66880000D01*
X-6831968Y64750000D02*
X-6831968Y64530000D01*
X-6831968Y64530000D02*
X-6991968Y64530000D01*
X-9253031Y64080000D02*
G75*
G02*
X-9430905Y64080000I-88937J0D01*
G01*
X-9430905Y64080000D02*
G75*
G02*
X-9253031Y64080000I88937J0D01*
G01*
D13*
G04 #@! TO.C,C45*
X-20006934Y69979332D02*
X-20288096Y69979332D01*
X-20006934Y68959332D02*
X-20288096Y68959332D01*
D12*
G04 #@! TO.C,U3*
X-49280001Y74434880D02*
X-49029999Y74434880D01*
X-49280001Y74184878D02*
X-49280001Y74434880D01*
X-49280001Y69834880D02*
X-49280001Y70084882D01*
X-49280001Y69834880D02*
X-49029999Y69834880D01*
X-44930003Y74434880D02*
X-44680001Y74434880D01*
X-44930003Y69834880D02*
X-44680001Y69834880D01*
X-44680001Y74184878D02*
X-44680001Y74434880D01*
X-44680001Y69834880D02*
X-44680001Y70084882D01*
D14*
X-49605000Y73734879D02*
G75*
G02*
X-49855002Y73734879I-125001J0D01*
G01*
X-49855002Y73734879D02*
G75*
G02*
X-49605000Y73734879I125001J0D01*
G01*
D13*
G04 #@! TO.C,C59*
X-60010000Y79780464D02*
X-60010000Y79499302D01*
X-58990000Y79780464D02*
X-58990000Y79499302D01*
G04 #@! TO.C,C39*
X-17540581Y76610000D02*
X-17259419Y76610000D01*
X-17540581Y75590000D02*
X-17259419Y75590000D01*
G04 #@! TO.C,R3*
X-43622500Y71762257D02*
X-43622500Y71287741D01*
X-42577500Y71762257D02*
X-42577500Y71287741D01*
G04 #@! TO.C,C54*
X-12109419Y69410000D02*
X-12390581Y69410000D01*
X-12109419Y68390000D02*
X-12390581Y68390000D01*
G04 #@! TO.C,R10*
X-40887260Y67522503D02*
X-40412744Y67522503D01*
X-40887260Y66477503D02*
X-40412744Y66477503D01*
G04 #@! TO.C,R8*
X-28412742Y84622500D02*
X-28887258Y84622500D01*
X-28412742Y83577500D02*
X-28887258Y83577500D01*
D15*
G04 #@! TO.C,S1*
X-81750000Y79709999D02*
X-81750001Y76330000D01*
X-81750000Y79709999D02*
X-79270000Y79710000D01*
X-81750000Y66310001D02*
X-81750001Y69690000D01*
X-79270000Y66310000D02*
X-81750000Y66310001D01*
X-74270000Y66310000D02*
X-76830000Y66310000D01*
X-71830000Y79710000D02*
X-69350000Y79709999D01*
X-69350000Y79709999D02*
X-69349999Y76330000D01*
X-69350000Y66310001D02*
X-71830000Y66310000D01*
X-69349999Y69690000D02*
X-69350000Y66310001D01*
D12*
X-72950000Y64509999D02*
G75*
G02*
X-73150000Y64509999I-100000J0D01*
G01*
X-73150000Y64509999D02*
G75*
G02*
X-72950000Y64509999I100000J0D01*
G01*
D13*
G04 #@! TO.C,R4*
X-77262742Y83322500D02*
X-77737258Y83322500D01*
X-77262742Y82277500D02*
X-77737258Y82277500D01*
G04 #@! TO.C,C18*
X-51115001Y76195603D02*
X-51115001Y75673097D01*
X-49645001Y76195603D02*
X-49645001Y75673097D01*
G04 #@! TO.C,C24*
X-38015002Y77724391D02*
X-38015002Y78246895D01*
X-36545002Y77724391D02*
X-36545002Y78246895D01*
G04 #@! TO.C,C21*
X-44307167Y75673744D02*
X-44307167Y76196250D01*
X-42837167Y75673744D02*
X-42837167Y76196250D01*
G04 #@! TO.C,C48*
X-23788095Y69979332D02*
X-23506933Y69979332D01*
X-23788095Y68959332D02*
X-23506933Y68959332D01*
G04 #@! TO.C,R6*
X-65322500Y76312258D02*
X-65322500Y75837742D01*
X-64277500Y76312258D02*
X-64277500Y75837742D01*
D14*
G04 #@! TO.C,L1*
X-50450000Y84514885D02*
X-43500000Y84514885D01*
X-50450000Y83204885D02*
X-50450000Y84514885D01*
X-50450000Y77914885D02*
X-50450000Y79234885D01*
X-50450000Y77914885D02*
X-43500000Y77914885D01*
X-43500000Y83204885D02*
X-43500000Y84514885D01*
X-43500000Y77914885D02*
X-43500000Y79234885D01*
D13*
G04 #@! TO.C,C15*
X-65460001Y68688395D02*
X-65460001Y68904067D01*
X-64740001Y68688395D02*
X-64740001Y68904067D01*
G04 #@! TO.C,C3*
X-53421872Y61515581D02*
X-53421872Y61234419D01*
X-52401872Y61515581D02*
X-52401872Y61234419D01*
D16*
G04 #@! TO.C,U9*
X-48851000Y64008175D02*
X-48851000Y62001575D01*
X-47563261Y62001575D02*
X-46836739Y62001575D01*
X-45549000Y62001575D02*
X-45549000Y64008175D01*
D13*
G04 #@! TO.C,R12*
X-43125423Y69122495D02*
X-42650907Y69122495D01*
X-43125423Y68077495D02*
X-42650907Y68077495D01*
G04 #@! TO.C,C1*
X-56598129Y61515581D02*
X-56598129Y61234419D01*
X-55578129Y61515581D02*
X-55578129Y61234419D01*
G04 #@! TO.C,TP1*
X-70500000Y60580000D02*
G75*
G02*
X-72400000Y60580000I-950000J0D01*
G01*
X-72400000Y60580000D02*
G75*
G02*
X-70500000Y60580000I950000J0D01*
G01*
G04 #@! TO.C,TP7*
X-75750000Y60580000D02*
G75*
G02*
X-77650000Y60580000I-950000J0D01*
G01*
X-77650000Y60580000D02*
G75*
G02*
X-75750000Y60580000I950000J0D01*
G01*
G04 #@! TO.C,C44*
X-20812164Y71160000D02*
X-21027836Y71160000D01*
X-20812164Y70440000D02*
X-21027836Y70440000D01*
G04 #@! TO.C,C17*
X-53265001Y75673096D02*
X-53265001Y76195602D01*
X-51795001Y75673096D02*
X-51795001Y76195602D01*
G04 #@! TO.C,R31*
X-15923641Y73380000D02*
X-15616359Y73380000D01*
X-15923641Y72620000D02*
X-15616359Y72620000D01*
G04 #@! TO.C,C22*
X-42215002Y77724393D02*
X-42215002Y78246899D01*
X-40745002Y77724393D02*
X-40745002Y78246899D01*
G04 #@! TO.C,C40*
X-23778097Y66779332D02*
X-23496935Y66779332D01*
X-23778097Y65759332D02*
X-23496935Y65759332D01*
G04 #@! TO.C,J2*
X-63510000Y84344885D02*
X-62130000Y84344885D01*
X-63510000Y82964885D02*
X-63510000Y84344885D01*
X-63510000Y81694885D02*
X-63510000Y73964885D01*
X-63510000Y81694885D02*
X-60750000Y81694885D01*
X-63510000Y73964885D02*
X-60750000Y73964885D01*
X-60750000Y81694885D02*
X-60750000Y73964885D01*
G04 #@! TO.C,U4*
X-30450000Y65745647D02*
X-31950000Y65745647D01*
X-30450000Y65745647D02*
X-28950000Y65745647D01*
X-30450000Y62525647D02*
X-31950000Y62525647D01*
X-30450000Y62525647D02*
X-28950000Y62525647D01*
X-27997500Y62395647D02*
X-28477500Y62395647D01*
X-28237500Y62725647D01*
X-27997500Y62395647D01*
G36*
X-27997500Y62395647D02*
G01*
X-28477500Y62395647D01*
X-28237500Y62725647D01*
X-27997500Y62395647D01*
G37*
G04 #@! TO.C,TP5*
X-61250000Y72300000D02*
G75*
G02*
X-63150000Y72300000I-950000J0D01*
G01*
X-63150000Y72300000D02*
G75*
G02*
X-61250000Y72300000I950000J0D01*
G01*
G04 #@! TO.C,C58*
X-46622163Y60760000D02*
X-46837835Y60760000D01*
X-46622163Y60040000D02*
X-46837835Y60040000D01*
G04 #@! TO.C,R9*
X-26662742Y74306832D02*
X-27137258Y74306832D01*
X-26662742Y73261832D02*
X-27137258Y73261832D01*
G04 #@! TO.C,C46*
X-20006934Y68379332D02*
X-20288096Y68379332D01*
X-20006934Y67359332D02*
X-20288096Y67359332D01*
G04 #@! TO.C,R40*
X-25272062Y61978933D02*
X-25272062Y62453449D01*
X-24227062Y61978933D02*
X-24227062Y62453449D01*
G04 #@! TO.C,R36*
X-8929710Y69422500D02*
X-9404226Y69422500D01*
X-8929710Y68377500D02*
X-9404226Y68377500D01*
G04 #@! TO.C,C57*
X-47059419Y66514875D02*
X-47340581Y66514875D01*
X-47059419Y65494875D02*
X-47340581Y65494875D01*
D14*
G04 #@! TO.C,USB1*
X-58370000Y68622441D02*
X-58370000Y63922441D01*
X-58370000Y63922441D02*
X-56990000Y63922441D01*
X-57020000Y68622441D02*
X-58370000Y68622441D01*
X-55410000Y63922441D02*
X-52190000Y63922441D01*
X-52220000Y68622441D02*
X-55380000Y68622441D01*
X-50610000Y63922441D02*
X-49230000Y63922441D01*
X-49230000Y68622441D02*
X-50580000Y68622441D01*
X-49230000Y63922441D02*
X-49230000Y68622441D01*
D17*
X-58220000Y68632441D02*
G75*
G02*
X-58280000Y68632441I-30000J0D01*
G01*
X-58280000Y68632441D02*
G75*
G02*
X-58220000Y68632441I30000J0D01*
G01*
D13*
G04 #@! TO.C,U7*
X-3711968Y63625000D02*
X-5211968Y63625000D01*
X-3711968Y63625000D02*
X-2211968Y63625000D01*
X-3711968Y60405000D02*
X-5211968Y60405000D01*
X-3711968Y60405000D02*
X-2211968Y60405000D01*
X-5924468Y63425000D02*
X-6164468Y63755000D01*
X-5684468Y63755000D01*
X-5924468Y63425000D01*
G36*
X-5924468Y63425000D02*
G01*
X-6164468Y63755000D01*
X-5684468Y63755000D01*
X-5924468Y63425000D01*
G37*
G04 #@! TO.C,C37*
X-20115351Y76760000D02*
X-19899679Y76760000D01*
X-20115351Y76040000D02*
X-19899679Y76040000D01*
G04 #@! TO.C,C14*
X-63579954Y68291839D02*
X-63579954Y68507511D01*
X-62859954Y68291839D02*
X-62859954Y68507511D01*
G04 #@! TO.C,C19*
X-48067837Y75344348D02*
X-47852165Y75344348D01*
X-48067837Y74624348D02*
X-47852165Y74624348D01*
D14*
G04 #@! TO.C,U11*
X590000Y78000000D02*
X590000Y75320000D01*
X590000Y70680000D02*
X590000Y68000000D01*
X590000Y68000000D02*
X6770000Y68000000D01*
X6770000Y78000000D02*
X590000Y78000000D01*
X9590000Y68850000D02*
X9590000Y77150000D01*
D17*
X620000Y68000000D02*
G75*
G02*
X560000Y68000000I-30000J0D01*
G01*
X560000Y68000000D02*
G75*
G02*
X620000Y68000000I30000J0D01*
G01*
D14*
X7170001Y73000000D02*
G75*
G02*
X1810001Y73000000I-2680000J0D01*
G01*
X1810001Y73000000D02*
G75*
G02*
X7170001Y73000000I2680000J0D01*
G01*
D13*
G04 #@! TO.C,C11*
X-53265002Y70838746D02*
X-53265002Y71361252D01*
X-51795002Y70838746D02*
X-51795002Y71361252D01*
D14*
G04 #@! TO.C,SW1*
X-10810000Y75900000D02*
X-9660000Y75900000D01*
X-10810000Y75730000D02*
X-10810000Y75900000D01*
X-10810000Y73730000D02*
X-10810000Y74270000D01*
X-10810000Y71730000D02*
X-10810000Y72270000D01*
X-10810000Y70100000D02*
X-10810000Y70270000D01*
X-9660000Y75900000D02*
X-6160000Y75900000D01*
X-9660000Y70100000D02*
X-10810000Y70100000D01*
X-8910000Y74600000D02*
X-8910000Y71400000D01*
X-8910000Y71400000D02*
X-6910000Y71400000D01*
X-6910000Y74600000D02*
X-8910000Y74600000D01*
X-6910000Y71400000D02*
X-6910000Y74600000D01*
X-6160000Y75900000D02*
X-5010000Y75900000D01*
X-6160000Y70100000D02*
X-9660000Y70100000D01*
X-5010000Y75900000D02*
X-5010000Y75730000D01*
X-5010000Y74270000D02*
X-5010000Y73730000D01*
X-5010000Y72270000D02*
X-5010000Y71730000D01*
X-5010000Y70270000D02*
X-5010000Y70100000D01*
X-5010000Y70100000D02*
X-6160000Y70100000D01*
D17*
X-4980000Y70100000D02*
G75*
G02*
X-5040000Y70100000I-30000J0D01*
G01*
X-5040000Y70100000D02*
G75*
G02*
X-4980000Y70100000I30000J0D01*
G01*
D18*
G36*
X-7239999Y71519840D02*
G01*
X-8590009Y71519840D01*
X-8590009Y72259869D01*
X-7249981Y72259869D01*
X-7239999Y72259869D01*
X-7239999Y71519840D01*
G37*
D13*
G04 #@! TO.C,R20*
X-40000424Y69122498D02*
X-39525908Y69122498D01*
X-40000424Y68077498D02*
X-39525908Y68077498D01*
G04 #@! TO.C,C12*
X-23887836Y76760000D02*
X-23672164Y76760000D01*
X-23887836Y76040000D02*
X-23672164Y76040000D01*
G04 #@! TO.C,R25*
X-26822500Y76437258D02*
X-26822500Y75962742D01*
X-25777500Y76437258D02*
X-25777500Y75962742D01*
D10*
G04 #@! TO.C,D4*
X600000Y84260000D02*
X1200000Y84260000D01*
X600000Y84250000D02*
X600000Y84260000D01*
X600000Y84250000D02*
X610000Y79400000D01*
X3800000Y84260000D02*
X4400000Y84260000D01*
X4400000Y84260000D02*
X4390000Y79410000D01*
D17*
X4330000Y79300000D02*
G75*
G02*
X4270000Y79300000I-30000J0D01*
G01*
X4270000Y79300000D02*
G75*
G02*
X4330000Y79300000I30000J0D01*
G01*
D18*
G36*
X1284508Y79333000D02*
G01*
X595000Y79333000D01*
X595000Y79790200D01*
X1284508Y79790200D01*
X1284508Y79333000D01*
G37*
G36*
X4405000Y79333000D02*
G01*
X3715492Y79333000D01*
X3715492Y79790200D01*
X4405000Y79790200D01*
X4405000Y79333000D01*
G37*
G36*
X607014Y81111025D02*
G01*
X4395119Y81111025D01*
X4395119Y80730051D01*
X608310Y80730051D01*
X607014Y81111025D01*
G37*
D13*
G04 #@! TO.C,R33*
X-17943641Y73084333D02*
X-17636359Y73084333D01*
X-17943641Y72324333D02*
X-17636359Y72324333D01*
G04 #@! TO.C,D7*
X-65535000Y80629883D02*
X-65535000Y78344883D01*
X-64065000Y80629883D02*
X-65535000Y80629883D01*
X-64065000Y78344883D02*
X-64065000Y80629883D01*
D10*
G04 #@! TO.C,U2*
X-67300001Y66896233D02*
X-67300001Y66696231D01*
X-67300001Y66896233D02*
X-67099999Y66896233D01*
X-67300001Y63096233D02*
X-67300001Y62896231D01*
X-67300001Y62896231D02*
X-67099999Y62896231D01*
X-63500001Y66896233D02*
X-63299999Y66896233D01*
X-63500001Y62896231D02*
X-63299999Y62896231D01*
X-63299999Y66896233D02*
X-63299999Y66696231D01*
X-63299999Y63096233D02*
X-63299999Y62896231D01*
D14*
X-63774999Y68152295D02*
G75*
G02*
X-64025001Y68152295I-125001J0D01*
G01*
X-64025001Y68152295D02*
G75*
G02*
X-63774999Y68152295I125001J0D01*
G01*
D13*
G04 #@! TO.C,C55*
X-5365581Y69075000D02*
X-5084419Y69075000D01*
X-5365581Y68055000D02*
X-5084419Y68055000D01*
G04 #@! TO.C,U1*
X-49699760Y63112678D02*
X-51699760Y63112678D01*
X-49699760Y60892678D02*
X-51699760Y60892678D01*
X-49459760Y60712678D02*
X-49459760Y60992678D01*
X-49179760Y60992678D01*
X-49459760Y60712678D01*
G36*
X-49459760Y60712678D02*
G01*
X-49459760Y60992678D01*
X-49179760Y60992678D01*
X-49459760Y60712678D01*
G37*
G04 #@! TO.C,J3*
X-23538562Y63306191D02*
X-23538562Y60546193D01*
X-15808562Y63306192D02*
X-23538562Y63306191D01*
X-15808562Y63306192D02*
X-15808562Y60546192D01*
X-15808562Y60546192D02*
X-23538562Y60546193D01*
X-14538562Y63306191D02*
X-13158562Y63306192D01*
X-13158562Y63306192D02*
X-13158563Y61926192D01*
G04 #@! TO.C,R26*
X-28422499Y75962741D02*
X-28422499Y76437257D01*
X-27377499Y75962741D02*
X-27377499Y76437257D01*
G04 #@! TO.C,C56*
X-14807836Y69530000D02*
X-14592164Y69530000D01*
X-14807836Y68810000D02*
X-14592164Y68810000D01*
G04 #@! TO.C,C28*
X-39998166Y71361253D02*
X-39998166Y70838747D01*
X-38528166Y71361253D02*
X-38528166Y70838747D01*
G04 #@! TO.C,R39*
X-11322258Y61408692D02*
X-10847742Y61408692D01*
X-11322258Y60363692D02*
X-10847742Y60363692D01*
G04 #@! TO.C,C9*
X-63560000Y61427836D02*
X-63560000Y61212164D01*
X-62840000Y61427836D02*
X-62840000Y61212164D01*
G04 #@! TO.C,C16*
X-55414999Y75673095D02*
X-55414999Y76195601D01*
X-53944999Y75673095D02*
X-53944999Y76195601D01*
D14*
G04 #@! TO.C,L4*
X-25597515Y84754330D02*
X-25297515Y84754330D01*
X-25597515Y77154330D02*
X-25597515Y84754330D01*
X-25497515Y84754330D02*
X-18197515Y84754330D01*
X-18197515Y84754330D02*
X-18197515Y77154330D01*
X-18197515Y77154330D02*
X-25597515Y77154330D01*
D17*
X-25467515Y77204330D02*
G75*
G02*
X-25527515Y77204330I-30000J0D01*
G01*
X-25527515Y77204330D02*
G75*
G02*
X-25467515Y77204330I30000J0D01*
G01*
D13*
G04 #@! TO.C,C13*
X-51260000Y72777833D02*
X-51260000Y72562161D01*
X-50540000Y72777833D02*
X-50540000Y72562161D01*
D16*
G04 #@! TO.C,MOSFET1*
X-34028900Y73856547D02*
X-34028900Y69614747D01*
X-28771100Y69614747D02*
X-28771100Y73856547D01*
D13*
G04 #@! TO.C,C27*
X-42035000Y71361253D02*
X-42035000Y70838747D01*
X-40565000Y71361253D02*
X-40565000Y70838747D01*
G04 #@! TO.C,C51*
X-260000Y61157380D02*
X-260000Y61373052D01*
X460000Y61157380D02*
X460000Y61373052D01*
G04 #@! TO.C,TP2*
X-65850000Y81600000D02*
G75*
G02*
X-67750000Y81600000I-950000J0D01*
G01*
X-67750000Y81600000D02*
G75*
G02*
X-65850000Y81600000I950000J0D01*
G01*
G04 #@! TO.C,TP8*
X-73150000Y60580000D02*
G75*
G02*
X-75050000Y60580000I-950000J0D01*
G01*
X-75050000Y60580000D02*
G75*
G02*
X-73150000Y60580000I950000J0D01*
G01*
G04 #@! TO.C,C25*
X-35915002Y77724391D02*
X-35915002Y78246895D01*
X-34445002Y77724391D02*
X-34445002Y78246895D01*
G04 #@! TO.C,C50*
X-23778098Y68379332D02*
X-23496936Y68379332D01*
X-23778098Y67359332D02*
X-23496936Y67359332D01*
G04 #@! TO.C,R51*
X-31797500Y80062258D02*
X-31797500Y79587742D01*
X-30752500Y80062258D02*
X-30752500Y79587742D01*
G04 #@! TO.C,R1*
X-73837258Y83322500D02*
X-73362742Y83322500D01*
X-73837258Y82277500D02*
X-73362742Y82277500D01*
G04 #@! TO.C,C42*
X-15887836Y72360000D02*
X-15672164Y72360000D01*
X-15887836Y71640000D02*
X-15672164Y71640000D01*
G04 #@! TO.C,C5*
X-29627836Y62160000D02*
X-29412164Y62160000D01*
X-29627836Y61440000D02*
X-29412164Y61440000D01*
D10*
G04 #@! TO.C,U6*
X-24447515Y75354330D02*
X-24392514Y75354330D01*
X-24447515Y75049330D02*
X-24447515Y75354330D01*
X-24447515Y72254332D02*
X-24447515Y72559332D01*
X-24447515Y72254332D02*
X-24392514Y72254332D01*
X-19402516Y75354330D02*
X-19347515Y75354330D01*
X-19402516Y72254332D02*
X-19347515Y72254332D01*
X-19347515Y75049330D02*
X-19347515Y75354330D01*
X-19347515Y72254332D02*
X-19347515Y72559332D01*
D14*
X-25022515Y74554332D02*
G75*
G02*
X-25272517Y74554332I-125001J0D01*
G01*
X-25272517Y74554332D02*
G75*
G02*
X-25022515Y74554332I125001J0D01*
G01*
D13*
G04 #@! TO.C,C41*
X-26759419Y72694332D02*
X-27040581Y72694332D01*
X-26759419Y71674332D02*
X-27040581Y71674332D01*
G04 #@! TO.C,R27*
X-17162742Y74922500D02*
X-17637258Y74922500D01*
X-17162742Y73877500D02*
X-17637258Y73877500D01*
D16*
G04 #@! TO.C,Q1*
X-62341500Y66714001D02*
X-62341500Y64936001D01*
X-62341500Y64936001D02*
X-58658500Y64936001D01*
X-61799972Y66587000D02*
X-61799973Y66841001D01*
X-61799972Y65063002D02*
X-61799973Y64809001D01*
X-58658500Y66714001D02*
X-62341500Y66714001D01*
X-58658500Y64936001D02*
X-58658500Y66714001D01*
D13*
G04 #@! TO.C,R28*
X-26662742Y71106833D02*
X-27137258Y71106833D01*
X-26662742Y70061833D02*
X-27137258Y70061833D01*
G04 #@! TO.C,C4*
X-55414999Y70838746D02*
X-55414999Y71361252D01*
X-53944999Y70838746D02*
X-53944999Y71361252D01*
G04 #@! TD*
%LPC*%
D18*
G04 #@! TO.C,U3*
G36*
X-48229998Y74284881D02*
G01*
X-48230001Y73684879D01*
X-48280001Y73634877D01*
X-49130002Y73634880D01*
X-49179999Y73684879D01*
X-49179999Y73784879D01*
X-49129999Y73834879D01*
X-48430001Y73834879D01*
X-48430001Y74284881D01*
X-48380001Y74334881D01*
X-48280001Y74334881D01*
X-48229998Y74284881D01*
G37*
G36*
X-48280001Y70584881D02*
G01*
X-48280001Y69984879D01*
X-48330001Y69934879D01*
X-48430001Y69934879D01*
X-48480001Y69984879D01*
X-48480001Y70434881D01*
X-49129999Y70434881D01*
X-49179999Y70484881D01*
X-49179999Y70584881D01*
X-49130002Y70634880D01*
X-48330001Y70634880D01*
X-48280001Y70584881D01*
G37*
G36*
X-45530001Y74284881D02*
G01*
X-45530001Y73834879D01*
X-44830003Y73834879D01*
X-44780003Y73784879D01*
X-44780003Y73684879D01*
X-44830000Y73634880D01*
X-45680001Y73634877D01*
X-45730001Y73684879D01*
X-45730004Y74284881D01*
X-45680001Y74334881D01*
X-45580001Y74334881D01*
X-45530001Y74284881D01*
G37*
G36*
X-44830000Y70634880D02*
G01*
X-44780003Y70584881D01*
X-44780003Y70484881D01*
X-44830003Y70434881D01*
X-45480001Y70434881D01*
X-45480001Y69984879D01*
X-45530001Y69934882D01*
X-45630001Y69934879D01*
X-45680004Y69984879D01*
X-45680001Y70584881D01*
X-45630001Y70634883D01*
X-44830000Y70634880D01*
G37*
G04 #@! TD*
D19*
G04 #@! TO.C,R29*
X-11910000Y63040000D03*
X-10260000Y63040000D03*
G04 #@! TD*
D20*
G04 #@! TO.C,R2*
X-68360365Y61807872D03*
X-67340367Y61807872D03*
G04 #@! TD*
D21*
G04 #@! TO.C,C23*
X-39380002Y77035645D03*
X-39380002Y78935643D03*
G04 #@! TD*
D22*
G04 #@! TO.C,R7*
X-42950000Y67000000D03*
X-44600000Y67000000D03*
G04 #@! TD*
D23*
G04 #@! TO.C,R35*
X-2384666Y65800000D03*
X3540334Y65800000D03*
G04 #@! TD*
D24*
G04 #@! TO.C,C43*
X-14200000Y73000000D03*
X-14200000Y72040000D03*
G04 #@! TD*
D25*
G04 #@! TO.C,C2*
X-54500000Y62150000D03*
X-54500000Y60600000D03*
G04 #@! TD*
D24*
G04 #@! TO.C,C8*
X-62200000Y61800000D03*
X-62200000Y60840000D03*
G04 #@! TD*
D20*
G04 #@! TO.C,R34*
X1070001Y60785216D03*
X2089999Y60785216D03*
G04 #@! TD*
D26*
G04 #@! TO.C,R30*
X-36242518Y65818646D03*
X-36242518Y71743646D03*
G04 #@! TD*
D27*
G04 #@! TO.C,C20*
X-45520000Y74984351D03*
X-46480000Y74984351D03*
G04 #@! TD*
D28*
G04 #@! TO.C,R13*
X-26438032Y61565000D03*
X-26438032Y62585000D03*
G04 #@! TD*
D23*
G04 #@! TO.C,R32*
X-17661968Y65800000D03*
X-11736968Y65800000D03*
G04 #@! TD*
D29*
G04 #@! TO.C,J5*
X-13870000Y82964885D03*
D30*
X-13870000Y80424885D03*
X-13870000Y77884885D03*
X-13870000Y75344885D03*
G04 #@! TD*
D31*
G04 #@! TO.C,C61*
X-64760000Y83125000D03*
X-64760000Y84675000D03*
G04 #@! TD*
D32*
G04 #@! TO.C,C49*
X-23351660Y70800000D03*
X-22391660Y70800000D03*
G04 #@! TD*
D33*
G04 #@! TO.C,C47*
X-19372515Y66269332D03*
X-20922515Y66269332D03*
G04 #@! TD*
D34*
G04 #@! TO.C,U12*
X-9011968Y64890000D03*
D35*
X-8341968Y64890000D03*
X-7881968Y64890000D03*
D36*
X-7211968Y64890000D03*
D37*
X-8111968Y65570000D03*
X-8111968Y66060000D03*
D38*
X-7211968Y66710000D03*
D35*
X-7881968Y66710000D03*
X-8341968Y66710000D03*
D39*
X-9011968Y66710000D03*
G04 #@! TD*
D33*
G04 #@! TO.C,C45*
X-19372515Y69469332D03*
X-20922515Y69469332D03*
G04 #@! TD*
D40*
G04 #@! TO.C,U3*
X-48804001Y73734880D03*
D41*
X-48329535Y73985038D03*
D42*
X-48880000Y73334880D03*
X-48880000Y72934881D03*
X-48880000Y72534879D03*
X-48880000Y72134880D03*
X-48880000Y71734881D03*
X-48880000Y71334879D03*
X-48880000Y70934880D03*
D43*
X-48830001Y70534880D03*
D44*
X-48380001Y70284880D03*
D45*
X-47980002Y70234881D03*
X-47580000Y70234881D03*
X-47180001Y70234881D03*
X-46780001Y70234881D03*
X-46380002Y70234881D03*
X-45980000Y70234881D03*
D46*
X-45580001Y70284880D03*
D47*
X-45130001Y70534880D03*
D48*
X-45130002Y70934880D03*
D49*
X-45105001Y71334882D03*
D50*
X-45120002Y71734881D03*
D42*
X-45080002Y72134880D03*
X-45080002Y72534879D03*
X-45080002Y72934881D03*
X-45080002Y73334880D03*
D51*
X-45630001Y73984880D03*
D52*
X-45156001Y73734880D03*
D53*
X-46080000Y73834879D03*
X-46530002Y73834879D03*
X-46980001Y73834879D03*
X-47430000Y73834879D03*
D54*
X-47880002Y73859880D03*
G04 #@! TD*
D25*
G04 #@! TO.C,C59*
X-59500000Y80414883D03*
X-59500000Y78864883D03*
G04 #@! TD*
D55*
G04 #@! TO.C,C39*
X-18175000Y76100000D03*
X-16625000Y76100000D03*
G04 #@! TD*
D56*
G04 #@! TO.C,R3*
X-43100000Y72349999D03*
X-43100000Y70699999D03*
G04 #@! TD*
D33*
G04 #@! TO.C,C54*
X-11475000Y68900000D03*
X-13025000Y68900000D03*
G04 #@! TD*
D19*
G04 #@! TO.C,R10*
X-41475002Y67000003D03*
X-39825002Y67000003D03*
G04 #@! TD*
D22*
G04 #@! TO.C,R8*
X-27825000Y84100000D03*
X-29475000Y84100000D03*
G04 #@! TD*
D57*
G04 #@! TO.C,H1*
X-84000000Y84000000D03*
G04 #@! TD*
D58*
G04 #@! TO.C,S1*
X-73050001Y66010000D03*
D59*
X-78049999Y66010000D03*
X-73050000Y80510000D03*
X-78050000Y80510000D03*
X-75550000Y80510000D03*
D60*
X-69950000Y73010000D03*
X-81150000Y73010000D03*
G04 #@! TD*
D22*
G04 #@! TO.C,R4*
X-76675000Y82800000D03*
X-78325000Y82800000D03*
G04 #@! TD*
D61*
G04 #@! TO.C,C18*
X-50380001Y76884349D03*
X-50380001Y74984351D03*
G04 #@! TD*
D21*
G04 #@! TO.C,C24*
X-37280002Y77035643D03*
X-37280002Y78935643D03*
G04 #@! TD*
G04 #@! TO.C,C21*
X-43572167Y74984998D03*
X-43572167Y76884996D03*
G04 #@! TD*
D55*
G04 #@! TO.C,C48*
X-24422514Y69469332D03*
X-22872514Y69469332D03*
G04 #@! TD*
D57*
G04 #@! TO.C,H2*
X8000000Y84000000D03*
G04 #@! TD*
D56*
G04 #@! TO.C,R6*
X-64800000Y76900000D03*
X-64800000Y75250000D03*
G04 #@! TD*
D62*
G04 #@! TO.C,L1*
X-50010001Y81214885D03*
X-43960001Y81214885D03*
G04 #@! TD*
D63*
G04 #@! TO.C,C15*
X-65100001Y68316231D03*
X-65100001Y69276231D03*
G04 #@! TD*
D25*
G04 #@! TO.C,C3*
X-52911872Y62150000D03*
X-52911872Y60600000D03*
G04 #@! TD*
D64*
G04 #@! TO.C,U9*
X-46249999Y64370125D03*
X-47200000Y64370126D03*
X-48150001Y64370125D03*
X-48150001Y61639625D03*
X-46249999Y61639625D03*
G04 #@! TD*
D19*
G04 #@! TO.C,R12*
X-43713165Y68599995D03*
X-42063165Y68599995D03*
G04 #@! TD*
D25*
G04 #@! TO.C,C1*
X-56088129Y62150000D03*
X-56088129Y60600000D03*
G04 #@! TD*
D65*
G04 #@! TO.C,TP1*
X-71450000Y60580000D03*
G04 #@! TD*
G04 #@! TO.C,TP7*
X-76700000Y60580000D03*
G04 #@! TD*
D27*
G04 #@! TO.C,C44*
X-20440000Y70800000D03*
X-21400000Y70800000D03*
G04 #@! TD*
D57*
G04 #@! TO.C,H3*
X8000000Y62000000D03*
G04 #@! TD*
D21*
G04 #@! TO.C,C17*
X-52530001Y74984350D03*
X-52530001Y76884348D03*
G04 #@! TD*
D20*
G04 #@! TO.C,R31*
X-16280000Y73000000D03*
X-15260000Y73000000D03*
G04 #@! TD*
D21*
G04 #@! TO.C,C22*
X-41480002Y77035647D03*
X-41480002Y78935645D03*
G04 #@! TD*
D55*
G04 #@! TO.C,C40*
X-24412516Y66269332D03*
X-22862516Y66269332D03*
G04 #@! TD*
D29*
G04 #@! TO.C,J2*
X-62130000Y82964885D03*
D30*
X-62130000Y80424885D03*
X-62130000Y77884885D03*
X-62130000Y75344885D03*
G04 #@! TD*
D66*
G04 #@! TO.C,U4*
X-28250000Y63135647D03*
X-28250000Y63635647D03*
X-28250000Y64135647D03*
X-28250000Y64635647D03*
X-28250000Y65135647D03*
X-32650000Y65135647D03*
X-32650000Y64635647D03*
X-32650000Y64135647D03*
X-32650000Y63635647D03*
X-32650000Y63135647D03*
G04 #@! TD*
D65*
G04 #@! TO.C,TP5*
X-62200000Y72300000D03*
G04 #@! TD*
D57*
G04 #@! TO.C,H4*
X-84000000Y62000000D03*
G04 #@! TD*
D27*
G04 #@! TO.C,C58*
X-46249999Y60400000D03*
X-47209999Y60400000D03*
G04 #@! TD*
D22*
G04 #@! TO.C,R9*
X-26075000Y73784332D03*
X-27725000Y73784332D03*
G04 #@! TD*
D33*
G04 #@! TO.C,C46*
X-19372515Y67869332D03*
X-20922515Y67869332D03*
G04 #@! TD*
D67*
G04 #@! TO.C,R40*
X-24749562Y61391191D03*
X-24749562Y63041191D03*
G04 #@! TD*
D22*
G04 #@! TO.C,R36*
X-8341968Y68900000D03*
X-9991968Y68900000D03*
G04 #@! TD*
D33*
G04 #@! TO.C,C57*
X-46425000Y66004875D03*
X-47975000Y66004875D03*
G04 #@! TD*
D68*
G04 #@! TO.C,USB1*
X-57550000Y66332441D03*
D69*
X-56200000Y68482441D03*
X-56200000Y64182441D03*
X-51400000Y68482441D03*
X-51400000Y64182441D03*
D70*
X-56570000Y67092441D03*
X-55780000Y67092441D03*
X-54980000Y67092441D03*
X-54190000Y67092441D03*
X-53410000Y67092441D03*
X-52620000Y67092441D03*
X-51830000Y67092441D03*
X-51030000Y67092441D03*
X-51030000Y65572441D03*
X-51830000Y65572441D03*
X-52620000Y65572441D03*
X-53410000Y65572441D03*
X-54190000Y65572441D03*
X-54980000Y65572441D03*
X-55780000Y65572441D03*
X-56570000Y65572441D03*
G04 #@! TD*
D71*
G04 #@! TO.C,U7*
X-5911968Y63015000D03*
X-5911968Y62514999D03*
X-5911968Y62015000D03*
X-5911968Y61515001D03*
X-5911968Y61015000D03*
X-1511968Y61015000D03*
X-1511968Y61515001D03*
X-1511968Y62015000D03*
X-1511968Y62514999D03*
X-1511968Y63015000D03*
G04 #@! TD*
D32*
G04 #@! TO.C,C37*
X-20487515Y76400000D03*
X-19527515Y76400000D03*
G04 #@! TD*
D63*
G04 #@! TO.C,C14*
X-63219954Y67919675D03*
X-63219954Y68879675D03*
G04 #@! TD*
D32*
G04 #@! TO.C,C19*
X-48440001Y74984348D03*
X-47480001Y74984348D03*
G04 #@! TD*
D72*
G04 #@! TO.C,U11*
X4490001Y73000000D03*
D73*
X710000Y73000000D03*
D74*
X8390000Y68120000D03*
X8390000Y77880000D03*
G04 #@! TD*
D21*
G04 #@! TO.C,C11*
X-52530002Y70150000D03*
X-52530002Y72049998D03*
G04 #@! TD*
D65*
G04 #@! TO.C,SW1*
X-5660000Y71000000D03*
X-5660000Y73000000D03*
X-5660000Y75000000D03*
X-10160000Y71000000D03*
X-10160000Y73000000D03*
X-10160000Y75000000D03*
G04 #@! TD*
D19*
G04 #@! TO.C,R20*
X-40588166Y68599998D03*
X-38938166Y68599998D03*
G04 #@! TD*
D32*
G04 #@! TO.C,C12*
X-24260000Y76400000D03*
X-23300000Y76400000D03*
G04 #@! TD*
D56*
G04 #@! TO.C,R25*
X-26300000Y77025000D03*
X-26300000Y75375000D03*
G04 #@! TD*
D75*
G04 #@! TO.C,D4*
X2500000Y79409999D03*
X2500000Y84590001D03*
G04 #@! TD*
D20*
G04 #@! TO.C,R33*
X-18300000Y72704333D03*
X-17280000Y72704333D03*
G04 #@! TD*
D76*
G04 #@! TO.C,D7*
X-64800000Y79932384D03*
X-64800000Y78357382D03*
G04 #@! TD*
D77*
G04 #@! TO.C,U2*
X-63900000Y66911763D03*
X-64299999Y66911763D03*
X-64700001Y66911763D03*
X-65100000Y66911763D03*
X-65500000Y66911763D03*
X-65899999Y66911763D03*
X-66300001Y66911763D03*
X-66700000Y66911763D03*
D78*
X-67315534Y66296232D03*
X-67315534Y65896233D03*
X-67315533Y65496230D03*
X-67315533Y65096231D03*
X-67315533Y64696233D03*
X-67315533Y64296234D03*
X-67315534Y63896231D03*
X-67315534Y63496232D03*
D77*
X-66700000Y62880698D03*
X-66300001Y62880698D03*
X-65899998Y62880699D03*
X-65499999Y62880699D03*
X-65100001Y62880699D03*
X-64700002Y62880699D03*
X-64299999Y62880698D03*
X-63900000Y62880698D03*
D78*
X-63284469Y63496232D03*
X-63284469Y63896231D03*
X-63284469Y64296233D03*
X-63284469Y64696232D03*
X-63284469Y65096232D03*
X-63284469Y65496231D03*
X-63284469Y65896233D03*
X-63284469Y66296232D03*
D79*
X-65300000Y64896232D03*
G04 #@! TD*
D55*
G04 #@! TO.C,C55*
X-6000000Y68565000D03*
X-4450000Y68565000D03*
G04 #@! TD*
D80*
G04 #@! TO.C,U1*
X-49812260Y61352678D03*
X-49812260Y62002678D03*
X-49812260Y62652678D03*
X-51587260Y62652678D03*
X-51587260Y62002678D03*
X-51587260Y61352678D03*
D81*
X-50699760Y62002678D03*
G04 #@! TD*
D29*
G04 #@! TO.C,J3*
X-14538562Y61926192D03*
D30*
X-17078562Y61926192D03*
X-19618561Y61926192D03*
X-22158562Y61926192D03*
G04 #@! TD*
D67*
G04 #@! TO.C,R26*
X-27899999Y75374999D03*
X-27899999Y77024999D03*
G04 #@! TD*
D32*
G04 #@! TO.C,C56*
X-15180000Y69170000D03*
X-14220000Y69170000D03*
G04 #@! TD*
D61*
G04 #@! TO.C,C28*
X-39263166Y72049999D03*
X-39263166Y70150001D03*
G04 #@! TD*
D19*
G04 #@! TO.C,R39*
X-11910000Y60886192D03*
X-10260000Y60886192D03*
G04 #@! TD*
D24*
G04 #@! TO.C,C9*
X-63200000Y61800000D03*
X-63200000Y60840000D03*
G04 #@! TD*
D21*
G04 #@! TO.C,C16*
X-54679999Y74984349D03*
X-54679999Y76884347D03*
G04 #@! TD*
D82*
G04 #@! TO.C,L4*
X-24307515Y80954330D03*
X-19487515Y80954330D03*
G04 #@! TD*
D24*
G04 #@! TO.C,C13*
X-50900000Y73149997D03*
X-50900000Y72189997D03*
G04 #@! TD*
D83*
G04 #@! TO.C,MOSFET1*
X-29495001Y74459797D03*
X-30765000Y74459797D03*
X-32035000Y74459797D03*
X-33304999Y74459797D03*
X-33304999Y69011497D03*
X-32035000Y69011497D03*
X-30765000Y69011497D03*
X-29495001Y69011497D03*
G04 #@! TD*
D61*
G04 #@! TO.C,C27*
X-41300000Y72049999D03*
X-41300000Y70150001D03*
G04 #@! TD*
D63*
G04 #@! TO.C,C51*
X100000Y60785216D03*
X100000Y61745216D03*
G04 #@! TD*
D65*
G04 #@! TO.C,TP2*
X-66800000Y81600000D03*
G04 #@! TD*
G04 #@! TO.C,TP8*
X-74100000Y60580000D03*
G04 #@! TD*
D21*
G04 #@! TO.C,C25*
X-35180002Y77035643D03*
X-35180002Y78935643D03*
G04 #@! TD*
D55*
G04 #@! TO.C,C50*
X-24412517Y67869332D03*
X-22862517Y67869332D03*
G04 #@! TD*
D56*
G04 #@! TO.C,R51*
X-31275000Y80650000D03*
X-31275000Y79000000D03*
G04 #@! TD*
D19*
G04 #@! TO.C,R1*
X-74425000Y82800000D03*
X-72775000Y82800000D03*
G04 #@! TD*
D32*
G04 #@! TO.C,C42*
X-16260000Y72000000D03*
X-15300000Y72000000D03*
G04 #@! TD*
G04 #@! TO.C,C5*
X-30000000Y61800000D03*
X-29040000Y61800000D03*
G04 #@! TD*
D84*
G04 #@! TO.C,U6*
X-24297515Y74554332D03*
X-24297515Y74054331D03*
X-24297515Y73554331D03*
X-24297515Y73054330D03*
D85*
X-23897516Y72404331D03*
X-23397515Y72404331D03*
D86*
X-22897516Y73804331D03*
X-22397514Y73804331D03*
D87*
X-21897515Y73804331D03*
D86*
X-21397516Y73804331D03*
X-20897514Y73804331D03*
D85*
X-20397515Y72404331D03*
X-19897514Y72404331D03*
D84*
X-19497515Y73054330D03*
X-19497515Y73554331D03*
X-19497515Y74054331D03*
X-19497515Y74554332D03*
D85*
X-19897514Y75204331D03*
X-20397515Y75204331D03*
X-23397515Y75204331D03*
X-23897516Y75204331D03*
G04 #@! TD*
D33*
G04 #@! TO.C,C41*
X-26125000Y72184332D03*
X-27675000Y72184332D03*
G04 #@! TD*
D22*
G04 #@! TO.C,R27*
X-16575000Y74400000D03*
X-18225000Y74400000D03*
G04 #@! TD*
D88*
G04 #@! TO.C,Q1*
X-59200000Y66150001D03*
X-59200000Y65500001D03*
X-59850000Y66150001D03*
X-59850000Y65500001D03*
X-60500000Y66150001D03*
X-60500000Y65500001D03*
X-61150000Y66150001D03*
X-61150000Y65500001D03*
X-61800000Y66150001D03*
X-61800000Y65500001D03*
G04 #@! TD*
D22*
G04 #@! TO.C,R28*
X-26075000Y70584333D03*
X-27725000Y70584333D03*
G04 #@! TD*
D21*
G04 #@! TO.C,C4*
X-54679999Y70150000D03*
X-54679999Y72049998D03*
G04 #@! TD*
D29*
G04 #@! TO.C,TH1*
X-44100000Y63975000D03*
D30*
X-44100000Y61435000D03*
G04 #@! TD*
D89*
G04 #@! TO.C,J4*
X-39250000Y62175000D03*
D90*
X-36750000Y62175000D03*
G04 #@! TD*
D29*
G04 #@! TO.C,J6*
X-37114999Y84100000D03*
D30*
X-34574999Y84100000D03*
X-32035000Y84100000D03*
G04 #@! TD*
%LPD*%
M02*
