G04 #@! TF.GenerationSoftware,KiCad,Pcbnew,9.0.4*
G04 #@! TF.CreationDate,2026-06-30T21:14:12-04:00*
G04 #@! TF.ProjectId,Pocket-Lab-Bench-Power,506f636b-6574-42d4-9c61-622d42656e63,REV1*
G04 #@! TF.SameCoordinates,Original*
G04 #@! TF.FileFunction,Soldermask,Top*
G04 #@! TF.FilePolarity,Negative*
%FSLAX46Y46*%
G04 Gerber Fmt 4.6, Leading zero omitted, Abs format (unit mm)*
G04 Created by KiCad (PCBNEW 9.0.4) date 2026-06-30 21:14:12*
%MOMM*%
%LPD*%
G01*
G04 APERTURE LIST*
G04 Aperture macros list*
%AMRoundRect*
0 Rectangle with rounded corners*
0 $1 Rounding radius*
0 $2 $3 $4 $5 $6 $7 $8 $9 X,Y pos of 4 corners*
0 Add a 4 corners polygon primitive as box body*
4,1,4,$2,$3,$4,$5,$6,$7,$8,$9,$2,$3,0*
0 Add four circle primitives for the rounded corners*
1,1,$1+$1,$2,$3*
1,1,$1+$1,$4,$5*
1,1,$1+$1,$6,$7*
1,1,$1+$1,$8,$9*
0 Add four rect primitives between the rounded corners*
20,1,$1+$1,$2,$3,$4,$5,0*
20,1,$1+$1,$4,$5,$6,$7,0*
20,1,$1+$1,$6,$7,$8,$9,0*
20,1,$1+$1,$8,$9,$2,$3,0*%
%AMOutline5P*
0 Free polygon, 5 corners , with rotation*
0 The origin of the aperture is its center*
0 number of corners: always 5*
0 $1 to $10 corner X, Y*
0 $11 Rotation angle, in degrees counterclockwise*
0 create outline with 5 corners*
4,1,5,$1,$2,$3,$4,$5,$6,$7,$8,$9,$10,$1,$2,$11*%
%AMOutline6P*
0 Free polygon, 6 corners , with rotation*
0 The origin of the aperture is its center*
0 number of corners: always 6*
0 $1 to $12 corner X, Y*
0 $13 Rotation angle, in degrees counterclockwise*
0 create outline with 6 corners*
4,1,6,$1,$2,$3,$4,$5,$6,$7,$8,$9,$10,$11,$12,$1,$2,$13*%
%AMOutline7P*
0 Free polygon, 7 corners , with rotation*
0 The origin of the aperture is its center*
0 number of corners: always 7*
0 $1 to $14 corner X, Y*
0 $15 Rotation angle, in degrees counterclockwise*
0 create outline with 7 corners*
4,1,7,$1,$2,$3,$4,$5,$6,$7,$8,$9,$10,$11,$12,$13,$14,$1,$2,$15*%
%AMOutline8P*
0 Free polygon, 8 corners , with rotation*
0 The origin of the aperture is its center*
0 number of corners: always 8*
0 $1 to $16 corner X, Y*
0 $17 Rotation angle, in degrees counterclockwise*
0 create outline with 8 corners*
4,1,8,$1,$2,$3,$4,$5,$6,$7,$8,$9,$10,$11,$12,$13,$14,$15,$16,$1,$2,$17*%
%AMFreePoly0*
4,1,19,0.335202,0.335431,0.349847,0.300076,0.349847,0.000199,0.349898,0.000076,0.349898,-0.299923,0.335253,-0.335278,0.299898,-0.349923,-0.300101,-0.349923,-0.335456,-0.335278,-0.350101,-0.299923,-0.350101,0.000076,-0.335456,0.035431,-0.300101,0.050076,-0.000140,0.050076,-0.000140,0.300076,0.014505,0.335431,0.049860,0.350076,0.299847,0.350076,0.335202,0.335431,0.335202,0.335431,
$1*%
%AMFreePoly1*
4,1,19,0.335278,0.335278,0.349923,0.299923,0.349923,-0.000051,0.349872,-0.000174,0.349872,-0.300076,0.335227,-0.335431,0.299872,-0.350076,0.049886,-0.350076,0.014531,-0.335431,-0.000114,-0.300076,-0.000114,-0.050051,-0.300076,-0.050051,-0.335431,-0.035406,-0.350076,-0.000051,-0.350076,0.299923,-0.335431,0.335278,-0.300076,0.349923,0.299923,0.349923,0.335278,0.335278,0.335278,0.335278,
$1*%
%AMFreePoly2*
4,1,19,0.335431,0.335304,0.350076,0.299949,0.350076,-0.000051,0.335431,-0.035406,0.300076,-0.050051,0.000114,-0.050051,0.000114,-0.300050,-0.014531,-0.335405,-0.049886,-0.350050,-0.299872,-0.350050,-0.335227,-0.335405,-0.349872,-0.300050,-0.349872,-0.000174,-0.349923,-0.000051,-0.349923,0.299949,-0.335278,0.335304,-0.299923,0.349949,0.300076,0.349949,0.335431,0.335304,0.335431,0.335304,
$1*%
%AMFreePoly3*
4,1,19,-0.014531,0.335431,0.000114,0.300076,0.000114,0.050076,0.300076,0.050076,0.335431,0.035431,0.350076,0.000076,0.350076,-0.299923,0.335431,-0.335278,0.300076,-0.349923,-0.299923,-0.349923,-0.335278,-0.335278,-0.349923,-0.299923,-0.349923,0.000076,-0.349872,0.000199,-0.349872,0.300076,-0.335227,0.335431,-0.299872,0.350076,-0.049886,0.350076,-0.014531,0.335431,-0.014531,0.335431,
$1*%
%AMFreePoly4*
4,1,5,0.165000,-1.700000,-0.165000,-1.700000,-0.165000,1.700000,0.165000,1.700000,0.165000,-1.700000,0.165000,-1.700000,$1*%
G04 Aperture macros list end*
%ADD10C,0.000000*%
%ADD11RoundRect,0.200000X-0.200000X-0.275000X0.200000X-0.275000X0.200000X0.275000X-0.200000X0.275000X0*%
%ADD12RoundRect,0.135000X-0.135000X-0.185000X0.135000X-0.185000X0.135000X0.185000X-0.135000X0.185000X0*%
%ADD13RoundRect,0.250000X0.475000X-0.250000X0.475000X0.250000X-0.475000X0.250000X-0.475000X-0.250000X0*%
%ADD14RoundRect,0.200000X0.200000X0.275000X-0.200000X0.275000X-0.200000X-0.275000X0.200000X-0.275000X0*%
%ADD15RoundRect,0.250000X-0.362500X-1.425000X0.362500X-1.425000X0.362500X1.425000X-0.362500X1.425000X0*%
%ADD16RoundRect,0.140000X-0.170000X0.140000X-0.170000X-0.140000X0.170000X-0.140000X0.170000X0.140000X0*%
%ADD17RoundRect,0.225000X-0.250000X0.225000X-0.250000X-0.225000X0.250000X-0.225000X0.250000X0.225000X0*%
%ADD18RoundRect,0.250000X1.425000X-0.362500X1.425000X0.362500X-1.425000X0.362500X-1.425000X-0.362500X0*%
%ADD19RoundRect,0.140000X0.140000X0.170000X-0.140000X0.170000X-0.140000X-0.170000X0.140000X-0.170000X0*%
%ADD20RoundRect,0.135000X0.185000X-0.135000X0.185000X0.135000X-0.185000X0.135000X-0.185000X-0.135000X0*%
%ADD21R,1.700000X1.700000*%
%ADD22C,1.700000*%
%ADD23RoundRect,0.225000X0.250000X-0.225000X0.250000X0.225000X-0.250000X0.225000X-0.250000X-0.225000X0*%
%ADD24RoundRect,0.140000X-0.140000X-0.170000X0.140000X-0.170000X0.140000X0.170000X-0.140000X0.170000X0*%
%ADD25RoundRect,0.225000X0.225000X0.250000X-0.225000X0.250000X-0.225000X-0.250000X0.225000X-0.250000X0*%
%ADD26FreePoly0,90.000000*%
%ADD27R,0.250000X0.600000*%
%ADD28FreePoly1,90.000000*%
%ADD29R,2.400000X0.300000*%
%ADD30FreePoly2,90.000000*%
%ADD31FreePoly3,90.000000*%
%ADD32Outline6P,-0.100000X0.335000X-0.060000X0.375000X0.060000X0.375000X0.100000X0.335000X0.100000X-0.375000X-0.100000X-0.375000X90.000000*%
%ADD33Outline7P,-0.100000X0.310000X-0.060000X0.350000X0.060000X0.350000X0.100000X0.310000X0.100000X-0.310000X0.060000X-0.350000X-0.100000X-0.350000X0.000000*%
%ADD34R,0.599999X0.200000*%
%ADD35Outline6P,-0.100000X0.350000X0.100000X0.350000X0.100000X-0.310000X0.060000X-0.350000X-0.060000X-0.350000X-0.100000X-0.310000X270.000000*%
%ADD36Outline7P,-0.100000X0.350000X0.060000X0.350000X0.100000X0.310000X0.100000X-0.310000X0.060000X-0.350000X-0.060000X-0.350000X-0.100000X-0.310000X0.000000*%
%ADD37R,0.200000X0.599999*%
%ADD38Outline7P,-0.100000X0.310000X-0.060000X0.350000X0.100000X0.350000X0.100000X-0.310000X0.060000X-0.350000X-0.060000X-0.350000X-0.100000X-0.310000X0.000000*%
%ADD39Outline6P,-0.100000X0.350000X0.100000X0.350000X0.100000X-0.310000X0.060000X-0.350000X-0.060000X-0.350000X-0.100000X-0.310000X90.000000*%
%ADD40R,0.700001X0.200000*%
%ADD41R,0.650001X0.200000*%
%ADD42R,0.680001X0.200000*%
%ADD43Outline7P,-0.100000X0.310000X-0.060000X0.350000X0.060000X0.350000X0.100000X0.310000X0.100000X-0.350000X-0.060000X-0.350000X-0.100000X-0.310000X0.000000*%
%ADD44Outline6P,-0.100000X0.335000X-0.060000X0.375000X0.060000X0.375000X0.100000X0.335000X0.100000X-0.375000X-0.100000X-0.375000X270.000000*%
%ADD45R,0.200000X1.000000*%
%ADD46R,0.200000X0.950001*%
%ADD47RoundRect,0.225000X-0.225000X-0.250000X0.225000X-0.250000X0.225000X0.250000X-0.225000X0.250000X0*%
%ADD48RoundRect,0.200000X-0.275000X0.200000X-0.275000X-0.200000X0.275000X-0.200000X0.275000X0.200000X0*%
%ADD49C,3.200000*%
%ADD50RoundRect,0.102000X0.900000X0.900000X-0.900000X0.900000X-0.900000X-0.900000X0.900000X-0.900000X0*%
%ADD51C,2.004000*%
%ADD52O,3.204000X6.204000*%
%ADD53RoundRect,0.250000X-0.475000X0.250000X-0.475000X-0.250000X0.475000X-0.250000X0.475000X0.250000X0*%
%ADD54R,2.350000X3.500000*%
%ADD55RoundRect,0.140000X0.170000X-0.140000X0.170000X0.140000X-0.170000X0.140000X-0.170000X-0.140000X0*%
%ADD56R,0.508000X0.977900*%
%ADD57C,1.500000*%
%ADD58RoundRect,0.075000X0.650000X0.075000X-0.650000X0.075000X-0.650000X-0.075000X0.650000X-0.075000X0*%
%ADD59RoundRect,0.200000X0.275000X-0.200000X0.275000X0.200000X-0.275000X0.200000X-0.275000X-0.200000X0*%
%ADD60C,0.700000*%
%ADD61C,1.200000*%
%ADD62R,0.300000X1.000000*%
%ADD63RoundRect,0.075000X-0.650000X-0.075000X0.650000X-0.075000X0.650000X0.075000X-0.650000X0.075000X0*%
%ADD64C,2.800000*%
%ADD65O,1.200000X4.200000*%
%ADD66O,2.800000X1.200000*%
%ADD67R,2.241000X2.047000*%
%ADD68RoundRect,0.218750X-0.256250X0.218750X-0.256250X-0.218750X0.256250X-0.218750X0.256250X0.218750X0*%
%ADD69R,0.192474X0.881065*%
%ADD70R,0.881065X0.192474*%
%ADD71R,2.849999X2.849999*%
%ADD72RoundRect,0.093750X0.093750X0.106250X-0.093750X0.106250X-0.093750X-0.106250X0.093750X-0.106250X0*%
%ADD73R,1.000000X1.600000*%
%ADD74R,1.920000X6.500000*%
%ADD75R,0.558800X1.460500*%
%ADD76R,0.599999X0.240000*%
%ADD77R,0.240000X0.599999*%
%ADD78R,0.240000X3.400001*%
%ADD79FreePoly4,0.000000*%
%ADD80C,0.304800*%
%ADD81RoundRect,0.250000X-0.600000X-0.750000X0.600000X-0.750000X0.600000X0.750000X-0.600000X0.750000X0*%
%ADD82O,1.700000X2.000000*%
G04 APERTURE END LIST*
D10*
G04 #@! TO.C,U3*
G36*
X-48229998Y74284881D02*
G01*
X-48230001Y73684879D01*
X-48280001Y73634877D01*
X-49130002Y73634880D01*
X-49179999Y73684879D01*
X-49179999Y73784879D01*
X-49129999Y73834879D01*
X-48430001Y73834879D01*
X-48430001Y74284881D01*
X-48380001Y74334881D01*
X-48280001Y74334881D01*
X-48229998Y74284881D01*
G37*
G36*
X-48280001Y70584881D02*
G01*
X-48280001Y69984879D01*
X-48330001Y69934879D01*
X-48430001Y69934879D01*
X-48480001Y69984879D01*
X-48480001Y70434881D01*
X-49129999Y70434881D01*
X-49179999Y70484881D01*
X-49179999Y70584881D01*
X-49130002Y70634880D01*
X-48330001Y70634880D01*
X-48280001Y70584881D01*
G37*
G36*
X-45530001Y74284881D02*
G01*
X-45530001Y73834879D01*
X-44830003Y73834879D01*
X-44780003Y73784879D01*
X-44780003Y73684879D01*
X-44830000Y73634880D01*
X-45680001Y73634877D01*
X-45730001Y73684879D01*
X-45730004Y74284881D01*
X-45680001Y74334881D01*
X-45580001Y74334881D01*
X-45530001Y74284881D01*
G37*
G36*
X-44830000Y70634880D02*
G01*
X-44780003Y70584881D01*
X-44780003Y70484881D01*
X-44830003Y70434881D01*
X-45480001Y70434881D01*
X-45480001Y69984879D01*
X-45530001Y69934882D01*
X-45630001Y69934879D01*
X-45680004Y69984879D01*
X-45680001Y70584881D01*
X-45630001Y70634883D01*
X-44830000Y70634880D01*
G37*
G04 #@! TD*
D11*
G04 #@! TO.C,R29*
X-11910000Y63040000D03*
X-10260000Y63040000D03*
G04 #@! TD*
D12*
G04 #@! TO.C,R2*
X-68360365Y61807872D03*
X-67340367Y61807872D03*
G04 #@! TD*
D13*
G04 #@! TO.C,C23*
X-39380002Y77035645D03*
X-39380002Y78935643D03*
G04 #@! TD*
D14*
G04 #@! TO.C,R7*
X-42950000Y67000000D03*
X-44600000Y67000000D03*
G04 #@! TD*
D15*
G04 #@! TO.C,R35*
X-2384666Y65800000D03*
X3540334Y65800000D03*
G04 #@! TD*
D16*
G04 #@! TO.C,C43*
X-14200000Y73000000D03*
X-14200000Y72040000D03*
G04 #@! TD*
D17*
G04 #@! TO.C,C2*
X-54500000Y62150000D03*
X-54500000Y60600000D03*
G04 #@! TD*
D16*
G04 #@! TO.C,C8*
X-62200000Y61800000D03*
X-62200000Y60840000D03*
G04 #@! TD*
D12*
G04 #@! TO.C,R34*
X1070001Y60785216D03*
X2089999Y60785216D03*
G04 #@! TD*
D18*
G04 #@! TO.C,R30*
X-36242518Y65818646D03*
X-36242518Y71743646D03*
G04 #@! TD*
D19*
G04 #@! TO.C,C20*
X-45520000Y74984351D03*
X-46480000Y74984351D03*
G04 #@! TD*
D20*
G04 #@! TO.C,R13*
X-26438032Y61565000D03*
X-26438032Y62585000D03*
G04 #@! TD*
D15*
G04 #@! TO.C,R32*
X-17661968Y65800000D03*
X-11736968Y65800000D03*
G04 #@! TD*
D21*
G04 #@! TO.C,J5*
X-13870000Y82964885D03*
D22*
X-13870000Y80424885D03*
X-13870000Y77884885D03*
X-13870000Y75344885D03*
G04 #@! TD*
D23*
G04 #@! TO.C,C61*
X-64760000Y83125000D03*
X-64760000Y84675000D03*
G04 #@! TD*
D24*
G04 #@! TO.C,C49*
X-23351660Y70800000D03*
X-22391660Y70800000D03*
G04 #@! TD*
D25*
G04 #@! TO.C,C47*
X-19372515Y66269332D03*
X-20922515Y66269332D03*
G04 #@! TD*
D26*
G04 #@! TO.C,U12*
X-9011968Y64890000D03*
D27*
X-8341968Y64890000D03*
X-7881968Y64890000D03*
D28*
X-7211968Y64890000D03*
D29*
X-8111968Y65570000D03*
X-8111968Y66060000D03*
D30*
X-7211968Y66710000D03*
D27*
X-7881968Y66710000D03*
X-8341968Y66710000D03*
D31*
X-9011968Y66710000D03*
G04 #@! TD*
D25*
G04 #@! TO.C,C45*
X-19372515Y69469332D03*
X-20922515Y69469332D03*
G04 #@! TD*
D32*
G04 #@! TO.C,U3*
X-48804001Y73734880D03*
D33*
X-48329535Y73985038D03*
D34*
X-48880000Y73334880D03*
X-48880000Y72934881D03*
X-48880000Y72534879D03*
X-48880000Y72134880D03*
X-48880000Y71734881D03*
X-48880000Y71334879D03*
X-48880000Y70934880D03*
D35*
X-48830001Y70534880D03*
D36*
X-48380001Y70284880D03*
D37*
X-47980002Y70234881D03*
X-47580000Y70234881D03*
X-47180001Y70234881D03*
X-46780001Y70234881D03*
X-46380002Y70234881D03*
X-45980000Y70234881D03*
D38*
X-45580001Y70284880D03*
D39*
X-45130001Y70534880D03*
D40*
X-45130002Y70934880D03*
D41*
X-45105001Y71334882D03*
D42*
X-45120002Y71734881D03*
D34*
X-45080002Y72134880D03*
X-45080002Y72534879D03*
X-45080002Y72934881D03*
X-45080002Y73334880D03*
D43*
X-45630001Y73984880D03*
D44*
X-45156001Y73734880D03*
D45*
X-46080000Y73834879D03*
X-46530002Y73834879D03*
X-46980001Y73834879D03*
X-47430000Y73834879D03*
D46*
X-47880002Y73859880D03*
G04 #@! TD*
D17*
G04 #@! TO.C,C59*
X-59500000Y80414883D03*
X-59500000Y78864883D03*
G04 #@! TD*
D47*
G04 #@! TO.C,C39*
X-18175000Y76100000D03*
X-16625000Y76100000D03*
G04 #@! TD*
D48*
G04 #@! TO.C,R3*
X-43100000Y72349999D03*
X-43100000Y70699999D03*
G04 #@! TD*
D25*
G04 #@! TO.C,C54*
X-11475000Y68900000D03*
X-13025000Y68900000D03*
G04 #@! TD*
D11*
G04 #@! TO.C,R10*
X-41475002Y67000003D03*
X-39825002Y67000003D03*
G04 #@! TD*
D14*
G04 #@! TO.C,R8*
X-27825000Y84100000D03*
X-29475000Y84100000D03*
G04 #@! TD*
D49*
G04 #@! TO.C,H1*
X-84000000Y84000000D03*
G04 #@! TD*
D50*
G04 #@! TO.C,S1*
X-73050001Y66010000D03*
D51*
X-78049999Y66010000D03*
X-73050000Y80510000D03*
X-78050000Y80510000D03*
X-75550000Y80510000D03*
D52*
X-69950000Y73010000D03*
X-81150000Y73010000D03*
G04 #@! TD*
D14*
G04 #@! TO.C,R4*
X-76675000Y82800000D03*
X-78325000Y82800000D03*
G04 #@! TD*
D53*
G04 #@! TO.C,C18*
X-50380001Y76884349D03*
X-50380001Y74984351D03*
G04 #@! TD*
D13*
G04 #@! TO.C,C24*
X-37280002Y77035643D03*
X-37280002Y78935643D03*
G04 #@! TD*
G04 #@! TO.C,C21*
X-43572167Y74984998D03*
X-43572167Y76884996D03*
G04 #@! TD*
D47*
G04 #@! TO.C,C48*
X-24422514Y69469332D03*
X-22872514Y69469332D03*
G04 #@! TD*
D49*
G04 #@! TO.C,H2*
X8000000Y84000000D03*
G04 #@! TD*
D48*
G04 #@! TO.C,R6*
X-64800000Y76900000D03*
X-64800000Y75250000D03*
G04 #@! TD*
D54*
G04 #@! TO.C,L1*
X-50010001Y81214885D03*
X-43960001Y81214885D03*
G04 #@! TD*
D55*
G04 #@! TO.C,C15*
X-65100001Y68316231D03*
X-65100001Y69276231D03*
G04 #@! TD*
D17*
G04 #@! TO.C,C3*
X-52911872Y62150000D03*
X-52911872Y60600000D03*
G04 #@! TD*
D56*
G04 #@! TO.C,U9*
X-46249999Y64370125D03*
X-47200000Y64370126D03*
X-48150001Y64370125D03*
X-48150001Y61639625D03*
X-46249999Y61639625D03*
G04 #@! TD*
D11*
G04 #@! TO.C,R12*
X-43713165Y68599995D03*
X-42063165Y68599995D03*
G04 #@! TD*
D17*
G04 #@! TO.C,C1*
X-56088129Y62150000D03*
X-56088129Y60600000D03*
G04 #@! TD*
D57*
G04 #@! TO.C,TP1*
X-71450000Y60580000D03*
G04 #@! TD*
G04 #@! TO.C,TP7*
X-76700000Y60580000D03*
G04 #@! TD*
D19*
G04 #@! TO.C,C44*
X-20440000Y70800000D03*
X-21400000Y70800000D03*
G04 #@! TD*
D49*
G04 #@! TO.C,H3*
X8000000Y62000000D03*
G04 #@! TD*
D13*
G04 #@! TO.C,C17*
X-52530001Y74984350D03*
X-52530001Y76884348D03*
G04 #@! TD*
D12*
G04 #@! TO.C,R31*
X-16280000Y73000000D03*
X-15260000Y73000000D03*
G04 #@! TD*
D13*
G04 #@! TO.C,C22*
X-41480002Y77035647D03*
X-41480002Y78935645D03*
G04 #@! TD*
D47*
G04 #@! TO.C,C40*
X-24412516Y66269332D03*
X-22862516Y66269332D03*
G04 #@! TD*
D21*
G04 #@! TO.C,J2*
X-62130000Y82964885D03*
D22*
X-62130000Y80424885D03*
X-62130000Y77884885D03*
X-62130000Y75344885D03*
G04 #@! TD*
D58*
G04 #@! TO.C,U4*
X-28250000Y63135647D03*
X-28250000Y63635647D03*
X-28250000Y64135647D03*
X-28250000Y64635647D03*
X-28250000Y65135647D03*
X-32650000Y65135647D03*
X-32650000Y64635647D03*
X-32650000Y64135647D03*
X-32650000Y63635647D03*
X-32650000Y63135647D03*
G04 #@! TD*
D57*
G04 #@! TO.C,TP5*
X-62200000Y72300000D03*
G04 #@! TD*
D49*
G04 #@! TO.C,H4*
X-84000000Y62000000D03*
G04 #@! TD*
D19*
G04 #@! TO.C,C58*
X-46249999Y60400000D03*
X-47209999Y60400000D03*
G04 #@! TD*
D14*
G04 #@! TO.C,R9*
X-26075000Y73784332D03*
X-27725000Y73784332D03*
G04 #@! TD*
D25*
G04 #@! TO.C,C46*
X-19372515Y67869332D03*
X-20922515Y67869332D03*
G04 #@! TD*
D59*
G04 #@! TO.C,R40*
X-24749562Y61391191D03*
X-24749562Y63041191D03*
G04 #@! TD*
D14*
G04 #@! TO.C,R36*
X-8341968Y68900000D03*
X-9991968Y68900000D03*
G04 #@! TD*
D25*
G04 #@! TO.C,C57*
X-46425000Y66004875D03*
X-47975000Y66004875D03*
G04 #@! TD*
D60*
G04 #@! TO.C,USB1*
X-57550000Y66332441D03*
D61*
X-56200000Y68482441D03*
X-56200000Y64182441D03*
X-51400000Y68482441D03*
X-51400000Y64182441D03*
D62*
X-56570000Y67092441D03*
X-55780000Y67092441D03*
X-54980000Y67092441D03*
X-54190000Y67092441D03*
X-53410000Y67092441D03*
X-52620000Y67092441D03*
X-51830000Y67092441D03*
X-51030000Y67092441D03*
X-51030000Y65572441D03*
X-51830000Y65572441D03*
X-52620000Y65572441D03*
X-53410000Y65572441D03*
X-54190000Y65572441D03*
X-54980000Y65572441D03*
X-55780000Y65572441D03*
X-56570000Y65572441D03*
G04 #@! TD*
D63*
G04 #@! TO.C,U7*
X-5911968Y63015000D03*
X-5911968Y62514999D03*
X-5911968Y62015000D03*
X-5911968Y61515001D03*
X-5911968Y61015000D03*
X-1511968Y61015000D03*
X-1511968Y61515001D03*
X-1511968Y62015000D03*
X-1511968Y62514999D03*
X-1511968Y63015000D03*
G04 #@! TD*
D24*
G04 #@! TO.C,C37*
X-20487515Y76400000D03*
X-19527515Y76400000D03*
G04 #@! TD*
D55*
G04 #@! TO.C,C14*
X-63219954Y67919675D03*
X-63219954Y68879675D03*
G04 #@! TD*
D24*
G04 #@! TO.C,C19*
X-48440001Y74984348D03*
X-47480001Y74984348D03*
G04 #@! TD*
D64*
G04 #@! TO.C,U11*
X4490001Y73000000D03*
D65*
X710000Y73000000D03*
D66*
X8390000Y68120000D03*
X8390000Y77880000D03*
G04 #@! TD*
D13*
G04 #@! TO.C,C11*
X-52530002Y70150000D03*
X-52530002Y72049998D03*
G04 #@! TD*
D57*
G04 #@! TO.C,SW1*
X-5660000Y71000000D03*
X-5660000Y73000000D03*
X-5660000Y75000000D03*
X-10160000Y71000000D03*
X-10160000Y73000000D03*
X-10160000Y75000000D03*
G04 #@! TD*
D11*
G04 #@! TO.C,R20*
X-40588166Y68599998D03*
X-38938166Y68599998D03*
G04 #@! TD*
D24*
G04 #@! TO.C,C12*
X-24260000Y76400000D03*
X-23300000Y76400000D03*
G04 #@! TD*
D48*
G04 #@! TO.C,R25*
X-26300000Y77025000D03*
X-26300000Y75375000D03*
G04 #@! TD*
D67*
G04 #@! TO.C,D4*
X2500000Y79409999D03*
X2500000Y84590001D03*
G04 #@! TD*
D12*
G04 #@! TO.C,R33*
X-18300000Y72704333D03*
X-17280000Y72704333D03*
G04 #@! TD*
D68*
G04 #@! TO.C,D7*
X-64800000Y79932384D03*
X-64800000Y78357382D03*
G04 #@! TD*
D69*
G04 #@! TO.C,U2*
X-63900000Y66911763D03*
X-64299999Y66911763D03*
X-64700001Y66911763D03*
X-65100000Y66911763D03*
X-65500000Y66911763D03*
X-65899999Y66911763D03*
X-66300001Y66911763D03*
X-66700000Y66911763D03*
D70*
X-67315534Y66296232D03*
X-67315534Y65896233D03*
X-67315533Y65496230D03*
X-67315533Y65096231D03*
X-67315533Y64696233D03*
X-67315533Y64296234D03*
X-67315534Y63896231D03*
X-67315534Y63496232D03*
D69*
X-66700000Y62880698D03*
X-66300001Y62880698D03*
X-65899998Y62880699D03*
X-65499999Y62880699D03*
X-65100001Y62880699D03*
X-64700002Y62880699D03*
X-64299999Y62880698D03*
X-63900000Y62880698D03*
D70*
X-63284469Y63496232D03*
X-63284469Y63896231D03*
X-63284469Y64296233D03*
X-63284469Y64696232D03*
X-63284469Y65096232D03*
X-63284469Y65496231D03*
X-63284469Y65896233D03*
X-63284469Y66296232D03*
D71*
X-65300000Y64896232D03*
G04 #@! TD*
D47*
G04 #@! TO.C,C55*
X-6000000Y68565000D03*
X-4450000Y68565000D03*
G04 #@! TD*
D72*
G04 #@! TO.C,U1*
X-49812260Y61352678D03*
X-49812260Y62002678D03*
X-49812260Y62652678D03*
X-51587260Y62652678D03*
X-51587260Y62002678D03*
X-51587260Y61352678D03*
D73*
X-50699760Y62002678D03*
G04 #@! TD*
D21*
G04 #@! TO.C,J3*
X-14538562Y61926192D03*
D22*
X-17078562Y61926192D03*
X-19618561Y61926192D03*
X-22158562Y61926192D03*
G04 #@! TD*
D59*
G04 #@! TO.C,R26*
X-27899999Y75374999D03*
X-27899999Y77024999D03*
G04 #@! TD*
D24*
G04 #@! TO.C,C56*
X-15180000Y69170000D03*
X-14220000Y69170000D03*
G04 #@! TD*
D53*
G04 #@! TO.C,C28*
X-39263166Y72049999D03*
X-39263166Y70150001D03*
G04 #@! TD*
D11*
G04 #@! TO.C,R39*
X-11910000Y60886192D03*
X-10260000Y60886192D03*
G04 #@! TD*
D16*
G04 #@! TO.C,C9*
X-63200000Y61800000D03*
X-63200000Y60840000D03*
G04 #@! TD*
D13*
G04 #@! TO.C,C16*
X-54679999Y74984349D03*
X-54679999Y76884347D03*
G04 #@! TD*
D74*
G04 #@! TO.C,L4*
X-24307515Y80954330D03*
X-19487515Y80954330D03*
G04 #@! TD*
D16*
G04 #@! TO.C,C13*
X-50900000Y73149997D03*
X-50900000Y72189997D03*
G04 #@! TD*
D75*
G04 #@! TO.C,MOSFET1*
X-29495001Y74459797D03*
X-30765000Y74459797D03*
X-32035000Y74459797D03*
X-33304999Y74459797D03*
X-33304999Y69011497D03*
X-32035000Y69011497D03*
X-30765000Y69011497D03*
X-29495001Y69011497D03*
G04 #@! TD*
D53*
G04 #@! TO.C,C27*
X-41300000Y72049999D03*
X-41300000Y70150001D03*
G04 #@! TD*
D55*
G04 #@! TO.C,C51*
X100000Y60785216D03*
X100000Y61745216D03*
G04 #@! TD*
D57*
G04 #@! TO.C,TP2*
X-66800000Y81600000D03*
G04 #@! TD*
G04 #@! TO.C,TP8*
X-74100000Y60580000D03*
G04 #@! TD*
D13*
G04 #@! TO.C,C25*
X-35180002Y77035643D03*
X-35180002Y78935643D03*
G04 #@! TD*
D47*
G04 #@! TO.C,C50*
X-24412517Y67869332D03*
X-22862517Y67869332D03*
G04 #@! TD*
D48*
G04 #@! TO.C,R51*
X-31275000Y80650000D03*
X-31275000Y79000000D03*
G04 #@! TD*
D11*
G04 #@! TO.C,R1*
X-74425000Y82800000D03*
X-72775000Y82800000D03*
G04 #@! TD*
D24*
G04 #@! TO.C,C42*
X-16260000Y72000000D03*
X-15300000Y72000000D03*
G04 #@! TD*
G04 #@! TO.C,C5*
X-30000000Y61800000D03*
X-29040000Y61800000D03*
G04 #@! TD*
D76*
G04 #@! TO.C,U6*
X-24297515Y74554332D03*
X-24297515Y74054331D03*
X-24297515Y73554331D03*
X-24297515Y73054330D03*
D77*
X-23897516Y72404331D03*
X-23397515Y72404331D03*
D78*
X-22897516Y73804331D03*
X-22397514Y73804331D03*
D79*
X-21897515Y73804331D03*
D78*
X-21397516Y73804331D03*
X-20897514Y73804331D03*
D77*
X-20397515Y72404331D03*
X-19897514Y72404331D03*
D76*
X-19497515Y73054330D03*
X-19497515Y73554331D03*
X-19497515Y74054331D03*
X-19497515Y74554332D03*
D77*
X-19897514Y75204331D03*
X-20397515Y75204331D03*
X-23397515Y75204331D03*
X-23897516Y75204331D03*
G04 #@! TD*
D25*
G04 #@! TO.C,C41*
X-26125000Y72184332D03*
X-27675000Y72184332D03*
G04 #@! TD*
D14*
G04 #@! TO.C,R27*
X-16575000Y74400000D03*
X-18225000Y74400000D03*
G04 #@! TD*
D80*
G04 #@! TO.C,Q1*
X-59200000Y66150001D03*
X-59200000Y65500001D03*
X-59850000Y66150001D03*
X-59850000Y65500001D03*
X-60500000Y66150001D03*
X-60500000Y65500001D03*
X-61150000Y66150001D03*
X-61150000Y65500001D03*
X-61800000Y66150001D03*
X-61800000Y65500001D03*
G04 #@! TD*
D14*
G04 #@! TO.C,R28*
X-26075000Y70584333D03*
X-27725000Y70584333D03*
G04 #@! TD*
D13*
G04 #@! TO.C,C4*
X-54679999Y70150000D03*
X-54679999Y72049998D03*
G04 #@! TD*
D21*
G04 #@! TO.C,TH1*
X-44100000Y63975000D03*
D22*
X-44100000Y61435000D03*
G04 #@! TD*
D81*
G04 #@! TO.C,J4*
X-39250000Y62175000D03*
D82*
X-36750000Y62175000D03*
G04 #@! TD*
D21*
G04 #@! TO.C,J6*
X-37114999Y84100000D03*
D22*
X-34574999Y84100000D03*
X-32035000Y84100000D03*
G04 #@! TD*
M02*
