M48
; DRILL file {KiCad 9.0.4} date 2026-06-30T21:14:13-0400
; FORMAT={-:-/ absolute / metric / decimal}
; #@! TF.CreationDate,2026-06-30T21:14:13-04:00
; #@! TF.GenerationSoftware,Kicad,Pcbnew,9.0.4
; #@! TF.FileFunction,Plated,1,4,PTH
FMAT,2
METRIC
; #@! TA.AperFunction,Plated,PTH,ViaDrill
T1C0.300
; #@! TA.AperFunction,Plated,PTH,ViaDrill
T2C0.350
; #@! TA.AperFunction,Plated,PTH,ViaDrill
T3C0.400
; #@! TA.AperFunction,Plated,PTH,ComponentDrill
T4C0.600
; #@! TA.AperFunction,Plated,PTH,ComponentDrill
T5C0.700
; #@! TA.AperFunction,Plated,PTH,ComponentDrill
T6C0.800
; #@! TA.AperFunction,Plated,PTH,ComponentDrill
T7C0.900
; #@! TA.AperFunction,Plated,PTH,ComponentDrill
T8C1.000
; #@! TA.AperFunction,Plated,PTH,ComponentDrill
T9C1.200
; #@! TA.AperFunction,Plated,PTH,ComponentDrill
T10C2.000
; #@! TA.AperFunction,Plated,PTH,ComponentDrill
T11C2.200
%
G90
G05
T1
X-71.8Y68.7
X-69.1Y67.0
X-68.5Y66.3
X-67.1Y68.3
X-66.9Y70.1
X-65.9Y70.1
X-65.081Y60.7
X-64.369Y70.0
X-64.2Y60.7
X-63.6Y70.0
X-62.7Y62.5
X-61.3Y61.2
X-54.98Y68.1
X-54.101Y68.6
X-53.499Y68.6
X-53.1Y64.7
X-50.713Y70.613
X-50.287Y70.187
X-50.176Y71.639
X-49.263Y74.25
X-48.073Y72.929
X-48.073Y72.35
X-47.547Y72.341
X-47.547Y72.929
X-46.683Y67.004
X-46.408Y72.929
X-46.408Y72.341
X-45.887Y72.928
X-45.887Y72.35
X-45.6Y66.8
X-44.8Y74.4
X-44.242Y72.579
X-40.282Y69.567
X-39.3Y81.7
X-35.4Y70.6
X-35.4Y66.9
X-27.226Y61.926
X-26.5Y65.336
X-26.5Y64.4
X-26.3Y76.2
X-25.188Y72.369
X-25.188Y73.269
X-24.0Y65.1
X-21.898Y76.654
X-21.898Y75.954
X-7.6Y63.7
X-7.1Y61.515
X-6.9Y63.7
T2
X-84.76Y78.09
X-84.76Y73.01
X-84.76Y67.93
X-80.0Y85.0
X-80.0Y61.0
X-77.391Y73.8
X-77.391Y70.6
X-77.391Y77.0
X-77.391Y68.2
X-76.7Y62.0
X-75.56Y82.8
X-74.1Y62.0
X-73.601Y72.2
X-73.601Y75.4
X-73.6Y78.2
X-73.6Y69.0
X-70.0Y85.0
X-68.36Y65.16
X-66.3Y64.896
X-65.9Y61.057
X-65.3Y65.896
X-65.3Y63.896
X-65.3Y64.896
X-64.8Y73.2
X-64.3Y64.896
X-63.657Y79.157
X-63.22Y66.859
X-62.7Y59.8
X-62.4Y67.2
X-61.3Y67.8
X-60.5Y64.484
X-60.5Y67.171
X-56.6Y83.825
X-56.0Y83.825
X-54.7Y79.8
X-52.3Y82.0
X-52.3Y81.2
X-52.3Y80.4
X-50.863Y78.45
X-50.1Y73.335
X-50.064Y72.535
X-49.98Y78.45
X-49.4Y69.7
X-49.163Y78.45
X-49.076Y60.4
X-49.0Y68.0
X-49.0Y66.0
X-49.0Y64.0
X-48.372Y78.45
X-47.21Y63.5
X-45.622Y78.435
X-45.4Y66.005
X-45.3Y69.3
X-44.813Y78.45
X-44.8Y68.6
X-44.199Y71.812
X-43.96Y78.435
X-43.113Y78.45
X-41.7Y64.4
X-39.6Y65.5
X-34.4Y74.0
X-33.4Y73.2
X-32.4Y80.65
X-30.8Y62.0
X-30.4Y70.4
X-29.8Y79.4
X-28.5Y67.8
X-28.0Y61.0
X-27.7Y67.8
X-26.9Y67.8
X-26.857Y74.551
X-26.4Y83.2
X-26.4Y81.0
X-26.4Y78.8
X-25.107Y76.635
X-23.0Y64.35
X-21.9Y77.3
X-21.9Y69.9
X-21.9Y69.05
X-21.9Y66.65
X-21.9Y65.85
X-21.9Y64.35
X-20.8Y64.35
X-17.3Y78.8
X-17.28Y71.62
X-16.2Y83.2
X-16.2Y81.0
X-15.853Y74.4
X-12.9Y63.04
X-11.1Y62.0
X-11.0Y84.0
X-11.0Y81.0
X-11.0Y78.0
X-9.9Y83.9
X-9.5Y85.149
X-9.0Y63.3
X-7.544Y62.319
X-7.5Y82.2
X-7.2Y69.2
X-6.6Y82.2
X-5.7Y82.2
X-1.9Y76.7
X-1.0Y76.7
X-0.6Y85.149
X-0.559Y79.087
X0.0Y76.7
X0.6Y66.6
X0.681Y79.087
X1.0Y61.745
X2.9Y82.0
X4.7Y86.1
X9.0Y80.0
X9.0Y66.0
T3
X-47.913Y71.15
X-46.98Y71.5
X-46.25Y62.7
X-46.063Y71.15
X-32.7Y70.9
X-30.0Y64.7
T5
X-57.55Y66.332
T6
X-56.2Y68.482
X-56.2Y64.182
X-51.4Y68.482
X-51.4Y64.182
T7
X-10.16Y75.0
X-10.16Y73.0
X-10.16Y71.0
X-5.66Y75.0
X-5.66Y73.0
X-5.66Y71.0
T8
X-62.13Y82.965
X-62.13Y80.425
X-62.13Y77.885
X-62.13Y75.345
X-44.1Y63.975
X-44.1Y61.435
X-39.25Y62.175
X-37.115Y84.1
X-36.75Y62.175
X-34.575Y84.1
X-32.035Y84.1
X-22.159Y61.926
X-19.619Y61.926
X-17.079Y61.926
X-14.539Y61.926
X-13.87Y82.965
X-13.87Y80.425
X-13.87Y77.885
X-13.87Y75.345
T9
X-78.05Y80.51
X-78.05Y66.01
X-75.55Y80.51
X-73.05Y66.01
X-73.05Y80.51
T11
X4.49Y73.0
T4
G00X0.71Y71.55
M15
G01X0.71Y74.45
M16
G05
G00X7.59Y77.88
M15
G01X9.19Y77.88
M16
G05
G00X7.59Y68.12
M15
G01X9.19Y68.12
M16
G05
T10
G00X-81.15Y72.86
M15
G01X-81.15Y73.16
M16
G05
G00X-69.95Y72.86
M15
G01X-69.95Y73.16
M16
G05
M30
